<?xml version="1.0" encoding="UTF-8" standalone="no"?>
<!DOCTYPE svg PUBLIC "-//W3C//DTD SVG 1.1//EN" "http://www.w3.org/Graphics/SVG/1.1/DTD/svg11.dtd">
<svg xmlns="http://www.w3.org/2000/svg" version="1.1" viewBox="0.00 0.00 529.00 529.00">
<g stroke-width="2.00" fill="none" stroke-linecap="butt">
<path stroke="#407e84" vector-effect="non-scaling-stroke" d="
  M 26.71 91.28
  L 26.56 142.98"
/>
<path stroke="#0b5884" vector-effect="non-scaling-stroke" d="
  M 26.56 142.98
  Q 26.51 143.42 26.65 143.74
  A 0.61 0.61 0.0 0 0 27.21 144.11
  L 192.70 144.08"
/>
<path stroke="#166a84" vector-effect="non-scaling-stroke" d="
  M 192.70 144.08
  L 192.73 242.20"
/>
<path stroke="#011136" vector-effect="non-scaling-stroke" d="
  M 192.73 242.20
  L 190.99 243.69"
/>
<path stroke="#00275d" vector-effect="non-scaling-stroke" d="
  M 190.99 243.69
  Q 188.99 244.62 187.96 245.98"
/>
<path stroke="#00377e" vector-effect="non-scaling-stroke" d="
  M 187.96 245.98
  L 185.10 248.37"
/>
<path stroke="#407e84" vector-effect="non-scaling-stroke" d="
  M 185.10 248.37
  L 113.43 312.75
  A 1.25 1.24 -53.2 0 1 112.06 312.95
  C 106.64 310.39 100.72 310.87 95.71 314.26
  Q 87.96 319.49 89.07 330.04"
/>
<path stroke="#0f7585" vector-effect="non-scaling-stroke" d="
  M 89.07 330.04
  Q 89.78 334.94 93.16 338.27"
/>
<path stroke="#0b5884" vector-effect="non-scaling-stroke" d="
  M 93.16 338.27
  Q 95.78 341.47 99.52 342.86"
/>
<path stroke="#002971" vector-effect="non-scaling-stroke" d="
  M 99.52 342.86
  Q 114.46 346.49 120.28 332.73"
/>
<path stroke="#004383" vector-effect="non-scaling-stroke" d="
  M 120.28 332.73
  Q 121.78 328.01 120.66 323.94"
/>
<path stroke="#0b5884" vector-effect="non-scaling-stroke" d="
  M 120.66 323.94
  Q 121.16 322.49 122.75 321.24
  Q 124.95 319.51 124.99 319.48
  Q 147.64 299.00 170.58 278.86
  C 175.00 274.97 181.28 268.81 186.96 264.15"
/>
<path stroke="#00377e" vector-effect="non-scaling-stroke" d="
  M 186.96 264.15
  L 188.53 262.78"
/>
<path stroke="#00275d" vector-effect="non-scaling-stroke" d="
  M 188.53 262.78
  Q 190.07 261.54 191.22 259.71"
/>
<path stroke="#011136" vector-effect="non-scaling-stroke" d="
  M 191.22 259.71
  L 194.07 258.88"
/>
<path stroke="#00327a" vector-effect="non-scaling-stroke" d="
  M 194.07 258.88
  L 268.08 258.77
  A 0.85 0.85 0.0 0 0 268.85 258.28
  Q 269.13 257.69 269.05 256.81"
/>
<path stroke="#00377e" vector-effect="non-scaling-stroke" d="
  M 269.05 256.81
  L 268.92 229.46"
/>
<path stroke="#003c81" vector-effect="non-scaling-stroke" d="
  M 268.92 229.46
  L 268.88 217.71"
/>
<path stroke="#004383" vector-effect="non-scaling-stroke" d="
  M 268.88 217.71
  L 269.02 175.45"
/>
<path stroke="#054d82" vector-effect="non-scaling-stroke" d="
  M 269.02 175.45
  L 268.88 155.77"
/>
<path stroke="#0b5884" vector-effect="non-scaling-stroke" d="
  M 268.88 155.77
  L 268.95 144.59
  A 0.55 0.55 0.0 0 1 269.50 144.04
  L 393.34 144.04
  A 1.28 1.26 -65.0 0 0 394.17 143.73
  C 397.02 141.30 399.08 138.91 402.91 137.44
  Q 414.80 132.88 425.78 139.02"
/>
<path stroke="#0f7585" vector-effect="non-scaling-stroke" d="
  M 425.78 139.02
  Q 427.04 140.18 427.86 139.36
  Q 453.55 113.55 479.23 87.73
  Q 486.56 80.36 494.15 72.58"
/>
<path stroke="#5d8185" vector-effect="non-scaling-stroke" d="
  M 494.15 72.58
  Q 495.32 71.75 495.73 70.69
  A 0.36 0.36 0.0 0 0 495.40 70.19
  L 27.13 70.19
  A 0.38 0.38 0.0 0 0 26.75 70.57
  L 26.71 91.28"
/>
<path stroke="#6bf3ff" vector-effect="non-scaling-stroke" d="
  M 494.15 72.58
  Q 491.32 72.29 488.51 73.84
  A 2.02 1.95 29.8 0 1 487.56 74.08
  L 455.71 73.81"
/>
<path stroke="#72e8fe" vector-effect="non-scaling-stroke" d="
  M 455.71 73.81
  Q 450.48 73.55 445.25 73.55
  Q 324.13 73.55 37.49 73.60
  Q 34.98 73.60 31.20 73.99
  A 0.58 0.57 88.3 0 0 30.69 74.54
  L 30.20 86.32"
/>
<path stroke="#6bf3ff" vector-effect="non-scaling-stroke" d="
  M 30.20 86.32
  L 30.18 90.44"
/>
<path stroke="#9cfcfe" vector-effect="non-scaling-stroke" d="
  M 30.18 90.44
  Q 28.63 91.32 26.71 91.28"
/>
<path stroke="#1ac9fe" vector-effect="non-scaling-stroke" d="
  M 107.89 140.12
  Q 86.22 141.00 64.32 140.85
  Q 46.71 140.72 28.91 140.97"
/>
<path stroke="#4ef0fd" vector-effect="non-scaling-stroke" d="
  M 28.91 140.97
  Q 30.12 139.79 30.15 138.99
  Q 30.62 122.20 30.18 90.44"
/>
<path stroke="#4bd3fd" vector-effect="non-scaling-stroke" d="
  M 28.91 140.97
  Q 27.80 143.03 26.56 142.98"
/>
<path stroke="#1ac9fe" vector-effect="non-scaling-stroke" d="
  M 425.78 139.02
  Q 420.76 131.36 417.03 123.02
  C 412.39 112.63 404.68 107.42 394.23 103.05"
/>
<path stroke="#24dcfe" vector-effect="non-scaling-stroke" d="
  M 394.23 103.05
  Q 408.33 100.97 422.40 99.77
  Q 427.43 99.35 430.51 98.22
  C 435.17 96.51 434.92 92.70 436.95 88.96
  Q 438.99 85.18 442.00 79.18
  Q 443.19 76.80 447.39 74.40
  A 1.81 1.79 28.5 0 1 448.21 74.16
  L 455.71 73.81"
/>
<path stroke="#21bffd" vector-effect="non-scaling-stroke" d="
  M 394.23 103.05
  L 385.30 104.07"
/>
<path stroke="#28c5fd" vector-effect="non-scaling-stroke" d="
  M 385.30 104.07
  Q 376.96 102.24 370.44 97.25"
/>
<path stroke="#2dc9fd" vector-effect="non-scaling-stroke" d="
  M 370.44 97.25
  L 378.61 92.60
  A 1.19 1.18 -23.8 0 0 379.16 91.19
  C 378.19 88.20 367.78 87.61 364.92 87.40
  Q 343.75 85.79 325.55 87.58
  C 303.95 89.71 273.36 94.42 247.68 95.69
  Q 235.94 96.27 166.87 99.30
  Q 158.47 99.66 151.49 100.46
  Q 150.24 100.60 149.55 101.03
  A 0.50 0.50 0.0 0 0 149.67 101.94
  Q 154.10 103.27 158.28 105.05
  Q 161.53 106.44 161.43 109.80"
/>
<path stroke="#28c5fd" vector-effect="non-scaling-stroke" d="
  M 161.43 109.80
  Q 153.27 112.19 145.56 115.86
  C 131.77 122.42 138.61 130.92 143.65 140.34"
/>
<path stroke="#21bffd" vector-effect="non-scaling-stroke" d="
  M 143.65 140.34
  L 107.89 140.12"
/>
<path stroke="#24dcfe" vector-effect="non-scaling-stroke" d="
  M 107.89 140.12
  C 104.37 133.62 100.40 127.54 95.12 122.29
  C 91.52 118.70 86.59 115.71 83.26 112.65
  C 76.53 106.44 88.83 103.41 81.56 98.99
  C 77.23 96.37 74.44 94.85 71.33 91.85
  Q 68.30 88.92 67.82 88.61
  Q 62.62 85.23 55.51 84.86
  Q 42.91 84.22 30.20 86.32"
/>
<path stroke="#10a2fb" vector-effect="non-scaling-stroke" d="
  M 268.88 155.77
  L 268.60 162.61
  A 0.67 0.65 84.2 0 1 268.11 163.23
  Q 260.42 165.25 253.01 165.83
  C 245.51 166.42 233.91 166.08 225.53 167.18
  Q 210.30 169.17 196.04 175.67"
/>
<path stroke="#21bffd" vector-effect="non-scaling-stroke" d="
  M 196.04 175.67
  L 195.83 144.57
  A 1.17 1.16 79.1 0 0 194.24 143.49
  L 192.70 144.08"
/>
<path stroke="#29bdfc" vector-effect="non-scaling-stroke" d="
  M 370.44 97.25
  Q 345.03 97.77 334.87 98.83
  C 308.82 101.57 281.73 104.33 253.44 105.84
  C 223.59 107.43 192.22 110.11 161.43 109.80"
/>
<path stroke="#1db2fd" vector-effect="non-scaling-stroke" d="
  M 385.30 104.07
  Q 373.30 106.52 364.72 106.80
  C 355.72 107.09 341.66 106.26 330.95 106.86
  Q 318.82 107.53 315.49 107.94
  C 290.72 110.98 279.36 112.70 259.44 114.10
  C 243.96 115.18 231.78 115.87 218.02 119.13
  Q 208.07 121.50 201.23 126.12
  Q 199.45 127.33 194.61 132.40
  Q 190.12 137.11 182.82 138.33
  C 169.48 140.56 156.71 140.37 143.65 140.34"
/>
<path stroke="#058dfa" vector-effect="non-scaling-stroke" d="
  M 269.02 175.45
  Q 268.66 176.51 268.72 177.96"
/>
<path stroke="#0791f7" vector-effect="non-scaling-stroke" d="
  M 268.72 177.96
  L 268.37 188.91
  A 0.40 0.39 -80.5 0 1 267.86 189.28
  C 248.95 183.47 227.64 180.21 209.58 190.79
  Q 203.18 194.54 196.00 200.63"
/>
<path stroke="#1ab4fb" vector-effect="non-scaling-stroke" d="
  M 196.04 175.67
  L 196.00 200.63"
/>
<path stroke="#18aef9" vector-effect="non-scaling-stroke" d="
  M 196.00 200.63
  L 195.73 241.50"
/>
<path stroke="#16aafc" vector-effect="non-scaling-stroke" d="
  M 195.73 241.50
  L 195.61 246.79"
/>
<path stroke="#16a3fa" vector-effect="non-scaling-stroke" d="
  M 195.61 246.79
  L 195.71 254.41"
/>
<path stroke="#169ef7" vector-effect="non-scaling-stroke" d="
  M 195.71 254.41
  L 195.40 255.28"
/>
<path stroke="#1699f3" vector-effect="non-scaling-stroke" d="
  M 195.40 255.28
  Q 194.29 257.67 192.62 258.62"
/>
<path stroke="#1678af" vector-effect="non-scaling-stroke" d="
  M 192.62 258.62
  L 192.73 242.20"
/>
<path stroke="#007cf8" vector-effect="non-scaling-stroke" d="
  M 268.88 217.71
  L 268.59 219.53
  A 0.36 0.35 -71.3 0 1 268.07 219.79
  C 257.73 214.16 246.21 209.04 234.19 209.74
  C 221.81 210.46 212.20 218.04 205.41 228.00
  Q 200.70 234.89 199.55 236.92
  Q 196.78 241.77 195.61 246.79"
/>
<path stroke="#0287f8" vector-effect="non-scaling-stroke" d="
  M 195.73 241.50
  Q 196.79 233.88 201.69 224.01
  Q 207.11 213.08 213.65 207.96
  C 230.42 194.85 251.51 201.12 268.18 210.19
  A 0.33 0.33 0.0 0 0 268.67 209.90
  L 268.72 177.96"
/>
<path stroke="#0070f4" vector-effect="non-scaling-stroke" d="
  M 268.92 229.46
  L 268.27 255.01
  A 0.09 0.09 0.0 0 1 268.10 255.04
  C 262.74 242.56 254.59 229.29 240.41 225.63
  Q 225.35 221.74 213.30 234.31
  Q 206.83 241.06 195.71 254.41"
/>
<path stroke="#0065ed" vector-effect="non-scaling-stroke" d="
  M 269.05 256.81
  Q 263.96 253.28 253.38 247.43
  C 235.48 237.53 223.12 244.07 208.43 254.82
  A 1.57 1.48 -61.7 0 1 207.53 255.12
  L 195.40 255.28"
/>
<path stroke="#0140a5" vector-effect="non-scaling-stroke" d="
  M 194.07 258.88
  Q 192.80 259.09 192.62 258.62"
/>
<path stroke="#013588" vector-effect="non-scaling-stroke" d="
  M 191.22 259.71
  Q 189.07 255.26 189.78 251.57
  Q 190.51 247.74 190.99 243.69"
/>
<path stroke="#005ad0" vector-effect="non-scaling-stroke" d="
  M 188.53 262.78
  L 187.96 245.98"
/>
<path stroke="#0b8bf7" vector-effect="non-scaling-stroke" d="
  M 186.96 264.15
  L 184.95 250.70"
/>
<path stroke="#40b2f7" vector-effect="non-scaling-stroke" d="
  M 184.95 250.70
  Q 185.99 248.91 185.10 248.37"
/>
<path stroke="#4bd3fd" vector-effect="non-scaling-stroke" d="
  M 184.95 250.70
  Q 180.81 257.11 178.25 259.00
  Q 170.71 264.55 164.01 271.48
  Q 162.93 272.59 160.81 274.29
  C 157.62 276.86 155.72 278.11 152.83 281.34
  Q 150.62 283.81 148.17 285.35
  C 146.46 286.42 145.27 288.57 143.67 289.40
  A 1.03 1.01 -2.9 0 0 143.21 289.90
  Q 142.90 290.60 142.60 290.83
  C 139.47 293.10 137.60 295.38 134.47 297.70
  Q 132.55 299.13 128.15 303.40
  Q 125.85 305.63 114.30 316.33
  A 1.24 1.22 -56.5 0 1 113.05 316.59
  Q 97.87 311.21 92.33 325.86"
/>
<path stroke="#4ef0fd" vector-effect="non-scaling-stroke" d="
  M 92.33 325.86
  L 92.31 331.07
  A 1.35 1.35 0.0 0 1 92.04 331.88
  C 91.49 332.64 91.16 333.35 91.13 334.19
  A 0.01 0.01 0.0 0 1 91.11 334.19
  L 89.07 330.04"
/>
<path stroke="#0b97fc" vector-effect="non-scaling-stroke" d="
  M 120.66 323.94
  Q 115.17 326.91 109.70 329.87
  Q 101.63 334.25 100.42 342.65"
/>
<path stroke="#0b7eea" vector-effect="non-scaling-stroke" d="
  M 100.42 342.65
  Q 99.86 342.65 99.52 342.86"
/>
<path stroke="#1ac9fe" vector-effect="non-scaling-stroke" d="
  M 93.16 338.27
  Q 95.05 338.30 94.68 337.60
  Q 91.97 332.48 92.33 325.86"
/>
<path stroke="#0069e8" vector-effect="non-scaling-stroke" d="
  M 120.28 332.73
  C 115.33 334.49 111.06 337.37 105.66 340.83
  Q 104.33 341.68 100.42 342.65"
/>
<path stroke="#407e84" vector-effect="non-scaling-stroke" d="
  M 360.48 201.71
  L 302.32 256.09
  A 1.69 1.68 -53.7 0 1 300.45 256.38
  C 295.01 253.79 289.21 254.18 284.19 257.75
  Q 275.91 263.63 277.66 274.98"
/>
<path stroke="#0b5884" vector-effect="non-scaling-stroke" d="
  M 277.66 274.98
  Q 278.91 280.62 283.14 283.85"
/>
<path stroke="#00327a" vector-effect="non-scaling-stroke" d="
  M 283.14 283.85
  Q 285.43 286.10 287.55 286.64
  C 293.25 288.10 300.19 287.13 304.50 282.95
  Q 307.49 280.06 308.81 275.90"
/>
<path stroke="#024780" vector-effect="non-scaling-stroke" d="
  M 308.81 275.90
  Q 310.13 272.43 309.57 268.60"
/>
<path stroke="#054d82" vector-effect="non-scaling-stroke" d="
  M 309.57 268.60
  L 309.46 266.49"
/>
<path stroke="#0b5884" vector-effect="non-scaling-stroke" d="
  M 309.46 266.49
  L 358.02 221.53"
/>
<path stroke="#0f7585" vector-effect="non-scaling-stroke" d="
  M 358.02 221.53
  L 404.36 178.59
  A 1.50 1.50 0.0 0 1 405.37 178.20
  Q 406.90 178.20 408.42 178.90"
/>
<path stroke="#054d82" vector-effect="non-scaling-stroke" d="
  M 408.42 178.90
  C 417.84 180.91 427.08 175.09 428.59 165.47"
/>
<path stroke="#0f7585" vector-effect="non-scaling-stroke" d="
  M 428.59 165.47
  Q 429.76 154.84 421.10 149.25"
/>
<path stroke="#5d8185" vector-effect="non-scaling-stroke" d="
  M 421.10 149.25
  Q 415.46 145.80 409.79 147.05
  C 401.18 148.94 395.62 155.89 396.74 165.14
  Q 396.92 166.60 396.93 167.63
  A 1.62 1.59 -21.8 0 1 396.40 168.84
  L 360.48 201.71"
/>
<path stroke="#6bf3ff" vector-effect="non-scaling-stroke" d="
  M 421.10 149.25
  Q 420.66 152.36 417.49 151.61
  Q 401.90 147.93 399.94 162.78
  C 399.75 164.22 400.02 166.15 399.94 167.65
  A 3.05 3.02 -20.2 0 1 398.99 169.68
  L 364.48 202.23"
/>
<path stroke="#9cfcfe" vector-effect="non-scaling-stroke" d="
  M 364.48 202.23
  L 360.48 201.71"
/>
<path stroke="#4bd3fd" vector-effect="non-scaling-stroke" d="
  M 339.16 225.48
  C 332.64 231.29 326.02 236.77 319.73 243.21
  C 314.08 248.99 309.22 253.00 303.33 258.87
  A 3.38 3.37 -58.0 0 1 299.85 259.68
  Q 290.69 256.57 284.52 262.61
  Q 282.21 264.88 281.65 267.60
  Q 280.92 271.09 281.13 273.75
  A 1.86 1.60 40.6 0 0 281.17 274.01
  L 282.22 277.97
  A 0.79 0.78 -73.0 0 1 280.87 278.69
  L 277.66 274.98"
/>
<path stroke="#13bffc" vector-effect="non-scaling-stroke" d="
  M 428.59 165.47
  Q 419.94 174.21 408.42 178.90"
/>
<path stroke="#1ac9fe" vector-effect="non-scaling-stroke" d="
  M 358.02 221.53
  Q 354.84 217.56 349.99 219.50
  Q 344.33 221.76 339.16 225.48"
/>
<path stroke="#4ef0fd" vector-effect="non-scaling-stroke" d="
  M 339.16 225.48
  C 344.00 220.20 351.22 214.23 354.75 210.98
  Q 359.55 206.55 364.48 202.23"
/>
<path stroke="#10a2fb" vector-effect="non-scaling-stroke" d="
  M 309.46 266.49
  Q 304.64 268.80 299.77 271.15
  Q 293.90 273.97 291.67 276.42
  Q 288.50 279.88 287.04 284.89"
/>
<path stroke="#0d9cf9" vector-effect="non-scaling-stroke" d="
  M 287.04 284.89
  L 287.28 285.34"
/>
<path stroke="#0b86f3" vector-effect="non-scaling-stroke" d="
  M 287.28 285.34
  L 283.14 283.85"
/>
<path stroke="#0276ef" vector-effect="non-scaling-stroke" d="
  M 308.81 275.90
  Q 304.20 278.50 299.99 281.20
  Q 293.98 285.05 287.28 285.34"
/>
<path stroke="#0791f7" vector-effect="non-scaling-stroke" d="
  M 309.57 268.60
  C 306.38 271.94 303.11 272.44 299.74 273.68
  C 294.07 275.77 290.44 280.15 287.04 284.89"
/>
<path stroke="#407e84" vector-effect="non-scaling-stroke" d="
  M 473.77 170.97
  L 418.93 217.72"
/>
<path stroke="#166a84" vector-effect="non-scaling-stroke" d="
  M 418.93 217.72
  L 418.98 305.54"
/>
<path stroke="#125e84" vector-effect="non-scaling-stroke" d="
  M 418.98 305.54
  L 419.11 361.79"
/>
<path stroke="#00377e" vector-effect="non-scaling-stroke" d="
  M 419.11 361.79
  L 419.00 392.79"
/>
<path stroke="#00275d" vector-effect="non-scaling-stroke" d="
  M 419.00 392.79
  L 419.05 449.54"
/>
<path stroke="#011b54" vector-effect="non-scaling-stroke" d="
  M 419.05 449.54
  Q 419.02 463.33 418.99 477.12
  Q 418.99 477.60 420.43 477.24"
/>
<path stroke="#011136" vector-effect="non-scaling-stroke" d="
  M 420.43 477.24
  Q 422.23 476.75 424.59 476.86
  Q 434.83 477.35 443.47 476.89
  Q 455.41 476.26 459.05 476.43
  Q 459.68 476.45 474.62 476.66
  A 0.67 0.67 0.0 0 0 475.30 475.99
  L 475.71 428.46"
/>
<path stroke="#011644" vector-effect="non-scaling-stroke" d="
  M 475.71 428.46
  L 475.79 418.24"
/>
<path stroke="#011b54" vector-effect="non-scaling-stroke" d="
  M 475.79 418.24
  L 475.90 389.21"
/>
<path stroke="#00275d" vector-effect="non-scaling-stroke" d="
  M 475.90 389.21
  L 475.79 382.91"
/>
<path stroke="#012265" vector-effect="non-scaling-stroke" d="
  M 475.79 382.91
  L 475.88 368.46"
/>
<path stroke="#002971" vector-effect="non-scaling-stroke" d="
  M 475.88 368.46
  L 475.93 350.70"
/>
<path stroke="#00327a" vector-effect="non-scaling-stroke" d="
  M 475.93 350.70
  L 475.99 326.51"
/>
<path stroke="#00377e" vector-effect="non-scaling-stroke" d="
  M 475.99 326.51
  L 475.97 314.49"
/>
<path stroke="#003c81" vector-effect="non-scaling-stroke" d="
  M 475.97 314.49
  L 475.96 298.99"
/>
<path stroke="#004383" vector-effect="non-scaling-stroke" d="
  M 475.96 298.99
  L 475.98 282.55"
/>
<path stroke="#024780" vector-effect="non-scaling-stroke" d="
  M 475.98 282.55
  L 475.97 272.04"
/>
<path stroke="#054d82" vector-effect="non-scaling-stroke" d="
  M 475.97 272.04
  L 476.02 242.72"
/>
<path stroke="#0b5884" vector-effect="non-scaling-stroke" d="
  M 476.02 242.72
  L 476.01 217.74"
/>
<path stroke="#0f7585" vector-effect="non-scaling-stroke" d="
  M 476.01 217.74
  L 476.11 169.86
  A 0.42 0.42 0.0 0 0 475.60 169.45
  Q 474.34 169.73 473.77 170.97"
/>
<path stroke="#1ac9fe" vector-effect="non-scaling-stroke" d="
  M 476.01 217.74
  Q 451.28 216.17 426.35 216.22"
/>
<path stroke="#4ef0fd" vector-effect="non-scaling-stroke" d="
  M 426.35 216.22
  C 431.09 211.71 436.76 207.45 441.12 203.50
  C 446.48 198.65 451.31 195.41 456.28 190.48
  Q 460.19 186.60 467.05 181.70
  Q 467.52 181.36 467.95 181.36
  A 0.24 0.20 -58.3 0 0 468.12 181.30
  L 472.38 177.33
  A 0.83 0.78 88.1 0 0 472.52 177.17
  Q 474.56 174.16 473.77 170.97"
/>
<path stroke="#4bd3fd" vector-effect="non-scaling-stroke" d="
  M 426.35 216.22
  L 422.78 219.46"
/>
<path stroke="#55e5fd" vector-effect="non-scaling-stroke" d="
  M 422.78 219.46
  Q 420.97 219.19 418.93 217.72"
/>
<path stroke="#10a2fb" vector-effect="non-scaling-stroke" d="
  M 476.02 242.72
  L 422.47 237.23"
/>
<path stroke="#21bffd" vector-effect="non-scaling-stroke" d="
  M 422.47 237.23
  Q 421.84 228.21 422.78 219.46"
/>
<path stroke="#1ab4fb" vector-effect="non-scaling-stroke" d="
  M 422.47 237.23
  L 422.45 264.42"
/>
<path stroke="#18aef9" vector-effect="non-scaling-stroke" d="
  M 422.45 264.42
  L 422.30 272.04"
/>
<path stroke="#16aafc" vector-effect="non-scaling-stroke" d="
  M 422.30 272.04
  L 422.35 291.98"
/>
<path stroke="#16a3fa" vector-effect="non-scaling-stroke" d="
  M 422.35 291.98
  L 421.61 321.15"
/>
<path stroke="#28c5fd" vector-effect="non-scaling-stroke" d="
  M 421.61 321.15
  L 420.58 324.02
  A 0.28 0.28 0.0 0 1 420.07 324.05
  Q 419.24 322.47 419.25 321.50
  Q 419.32 313.51 418.98 305.54"
/>
<path stroke="#0791f7" vector-effect="non-scaling-stroke" d="
  M 475.97 272.04
  Q 449.94 263.37 422.45 264.42"
/>
<path stroke="#007cf8" vector-effect="non-scaling-stroke" d="
  M 475.96 298.99
  C 458.33 293.25 441.05 289.01 422.35 291.98"
/>
<path stroke="#128cf3" vector-effect="non-scaling-stroke" d="
  M 421.75 358.72
  L 421.71 359.43"
/>
<path stroke="#1291f7" vector-effect="non-scaling-stroke" d="
  M 421.71 359.43
  L 420.99 369.84
  A 0.39 0.39 0.0 0 1 420.32 370.09
  L 419.86 369.64
  A 2.02 1.99 -68.7 0 1 419.29 368.31
  L 419.11 361.79"
/>
<path stroke="#0287f8" vector-effect="non-scaling-stroke" d="
  M 475.98 282.55
  Q 455.79 277.75 438.34 276.81
  Q 434.79 276.61 423.09 276.74
  A 0.53 0.53 0.0 0 1 422.56 276.25
  L 422.30 272.04"
/>
<path stroke="#0070f4" vector-effect="non-scaling-stroke" d="
  M 475.97 314.49
  C 458.00 309.81 441.26 306.61 422.84 307.89
  A 0.55 0.54 88.9 0 0 422.33 308.43
  L 421.92 328.14"
/>
<path stroke="#006bf0" vector-effect="non-scaling-stroke" d="
  M 421.92 328.14
  L 421.75 358.72"
/>
<path stroke="#1297f9" vector-effect="non-scaling-stroke" d="
  M 421.75 358.72
  L 421.61 321.15"
/>
<path stroke="#0058e0" vector-effect="non-scaling-stroke" d="
  M 475.93 350.70
  L 475.57 352.57
  A 0.48 0.47 -77.2 0 1 474.99 352.94
  C 456.73 348.46 440.38 346.11 422.94 350.97
  A 1.20 1.18 82.4 0 0 422.07 352.12
  L 422.04 387.79"
/>
<path stroke="#0151d4" vector-effect="non-scaling-stroke" d="
  M 422.04 387.79
  Q 421.95 387.79 421.85 387.78"
/>
<path stroke="#0065ed" vector-effect="non-scaling-stroke" d="
  M 421.85 387.78
  L 421.71 359.43"
/>
<path stroke="#0156d8" vector-effect="non-scaling-stroke" d="
  M 421.85 387.78
  L 421.88 407.28"
/>
<path stroke="#005ad0" vector-effect="non-scaling-stroke" d="
  M 421.88 407.28
  L 420.79 411.68
  A 0.30 0.30 0.0 0 1 420.22 411.73
  Q 419.47 410.02 419.43 408.00
  Q 419.32 400.39 419.00 392.79"
/>
<path stroke="#0065ed" vector-effect="non-scaling-stroke" d="
  M 475.99 326.51
  Q 468.73 325.39 450.64 322.90
  Q 435.28 320.78 421.92 328.14"
/>
<path stroke="#0146b7" vector-effect="non-scaling-stroke" d="
  M 475.79 382.91
  C 462.83 386.19 454.40 386.07 437.98 386.52
  Q 433.31 386.64 422.88 388.07
  A 0.59 0.59 0.0 0 0 422.37 388.63
  L 421.88 407.28"
/>
<path stroke="#0148ca" vector-effect="non-scaling-stroke" d="
  M 475.88 368.46
  Q 465.37 369.54 462.69 369.60
  C 449.34 369.93 436.95 369.67 422.85 371.80
  A 0.60 0.59 -4.1 0 0 422.35 372.37
  L 422.04 387.79"
/>
<path stroke="#013fa6" vector-effect="non-scaling-stroke" d="
  M 475.90 389.21
  L 475.70 390.74
  A 0.76 0.73 -5.0 0 1 475.16 391.36
  Q 463.80 394.75 457.31 395.43
  C 440.14 397.22 434.37 397.67 422.90 399.76
  A 0.64 0.63 85.7 0 0 422.38 400.38
  L 422.08 428.05"
/>
<path stroke="#013996" vector-effect="non-scaling-stroke" d="
  M 422.08 428.05
  Q 421.16 437.86 421.97 447.70"
/>
<path stroke="#013fa6" vector-effect="non-scaling-stroke" d="
  M 421.97 447.70
  L 420.64 455.79
  A 0.52 0.51 -43.2 0 1 419.62 455.76
  L 419.05 449.54"
/>
<path stroke="#012e8d" vector-effect="non-scaling-stroke" d="
  M 475.79 418.24
  Q 471.12 418.17 454.48 418.34
  Q 437.57 418.53 423.03 423.85
  A 0.81 0.80 83.4 0 0 422.51 424.51
  L 422.08 428.05"
/>
<path stroke="#01246f" vector-effect="non-scaling-stroke" d="
  M 475.71 428.46
  L 475.38 436.62
  A 0.75 0.74 -8.8 0 1 474.88 437.29
  C 464.00 440.95 457.02 442.22 442.77 444.95
  Q 434.09 446.61 423.32 451.37
  A 0.83 0.82 -8.6 0 0 422.84 452.01
  L 421.56 462.19"
/>
<path stroke="#012e8d" vector-effect="non-scaling-stroke" d="
  M 421.56 462.19
  L 421.97 447.70"
/>
<path stroke="#01297f" vector-effect="non-scaling-stroke" d="
  M 420.43 477.24
  Q 422.97 471.24 421.56 462.19"
/>
<path stroke="#176284" vector-effect="non-scaling-stroke" d="
  M 340.27 285.67
  L 340.09 318.29"
/>
<path stroke="#0b5884" vector-effect="non-scaling-stroke" d="
  M 340.09 318.29
  L 340.08 371.28"
/>
<path stroke="#00377e" vector-effect="non-scaling-stroke" d="
  M 340.08 371.28
  L 340.11 393.28"
/>
<path stroke="#012265" vector-effect="non-scaling-stroke" d="
  M 340.11 393.28
  L 340.24 455.21"
/>
<path stroke="#011b54" vector-effect="non-scaling-stroke" d="
  M 340.24 455.21
  L 340.11 475.95"
/>
<path stroke="#011136" vector-effect="non-scaling-stroke" d="
  M 340.11 475.95
  Q 339.77 476.90 340.67 477.38
  A 1.13 1.08 -32.1 0 0 341.25 477.50
  Q 346.85 477.03 353.25 476.97
  Q 375.96 476.74 396.12 477.17
  A 0.70 0.70 0.0 0 0 396.80 476.69
  Q 397.52 474.43 397.46 472.50
  Q 397.04 460.70 397.45 451.29"
/>
<path stroke="#011644" vector-effect="non-scaling-stroke" d="
  M 397.45 451.29
  L 397.64 400.53"
/>
<path stroke="#011b54" vector-effect="non-scaling-stroke" d="
  M 397.64 400.53
  L 397.58 374.95"
/>
<path stroke="#012265" vector-effect="non-scaling-stroke" d="
  M 397.58 374.95
  L 397.40 350.68"
/>
<path stroke="#002971" vector-effect="non-scaling-stroke" d="
  M 397.40 350.68
  L 397.61 322.21"
/>
<path stroke="#00377e" vector-effect="non-scaling-stroke" d="
  M 397.61 322.21
  L 397.52 305.96"
/>
<path stroke="#003c81" vector-effect="non-scaling-stroke" d="
  M 397.52 305.96
  L 397.39 295.44"
/>
<path stroke="#004383" vector-effect="non-scaling-stroke" d="
  M 397.39 295.44
  L 397.50 282.52"
/>
<path stroke="#024780" vector-effect="non-scaling-stroke" d="
  M 397.50 282.52
  L 397.52 274.36"
/>
<path stroke="#054d82" vector-effect="non-scaling-stroke" d="
  M 397.52 274.36
  L 397.48 237.72"
/>
<path stroke="#407e84" vector-effect="non-scaling-stroke" d="
  M 397.48 237.72
  L 397.43 236.81
  A 0.42 0.41 -22.1 0 0 396.74 236.52
  L 340.27 285.67"
/>
<path stroke="#44c8fb" vector-effect="non-scaling-stroke" d="
  M 397.48 237.72
  L 394.39 243.66
  A 2.38 2.31 -7.2 0 1 393.87 244.31
  L 365.70 268.24"
/>
<path stroke="#42c2f9" vector-effect="non-scaling-stroke" d="
  M 365.70 268.24
  L 347.72 283.92"
/>
<path stroke="#40befb" vector-effect="non-scaling-stroke" d="
  M 347.72 283.92
  L 343.67 287.65"
/>
<path stroke="#57ddfc" vector-effect="non-scaling-stroke" d="
  M 343.67 287.65
  Q 340.48 287.33 340.27 285.67"
/>
<path stroke="#0791f7" vector-effect="non-scaling-stroke" d="
  M 397.52 274.36
  Q 382.02 268.56 365.70 268.24"
/>
<path stroke="#0287f8" vector-effect="non-scaling-stroke" d="
  M 397.50 282.52
  L 347.72 283.92"
/>
<path stroke="#007cf8" vector-effect="non-scaling-stroke" d="
  M 397.39 295.44
  L 397.15 301.12
  A 0.41 0.41 0.0 0 1 396.67 301.51
  Q 390.03 300.45 383.42 299.53
  Q 363.56 296.75 343.55 298.79"
/>
<path stroke="#17a2fb" vector-effect="non-scaling-stroke" d="
  M 343.55 298.79
  L 343.67 287.65"
/>
<path stroke="#179bf9" vector-effect="non-scaling-stroke" d="
  M 343.55 298.79
  L 343.61 310.93"
/>
<path stroke="#1796f7" vector-effect="non-scaling-stroke" d="
  M 343.61 310.93
  L 343.53 322.21"
/>
<path stroke="#1791f3" vector-effect="non-scaling-stroke" d="
  M 343.53 322.21
  L 343.48 323.02"
/>
<path stroke="#22b7fd" vector-effect="non-scaling-stroke" d="
  M 343.48 323.02
  Q 342.15 323.61 340.88 323.37
  A 0.65 0.65 0.0 0 1 340.35 322.77
  L 340.09 318.29"
/>
<path stroke="#0070f4" vector-effect="non-scaling-stroke" d="
  M 397.52 305.96
  L 396.80 311.01
  A 0.55 0.54 -85.2 0 1 396.25 311.48
  L 343.61 310.93"
/>
<path stroke="#0058e0" vector-effect="non-scaling-stroke" d="
  M 397.15 322.29
  L 396.92 330.97
  A 0.68 0.67 -6.8 0 1 396.41 331.61
  C 385.75 334.47 376.51 334.66 365.02 334.57
  Q 357.51 334.51 343.54 336.06"
/>
<path stroke="#0b86f3" vector-effect="non-scaling-stroke" d="
  M 343.48 323.02
  L 343.54 336.06"
/>
<path stroke="#0b7eea" vector-effect="non-scaling-stroke" d="
  M 343.54 336.06
  L 343.43 370.26"
/>
<path stroke="#0c77de" vector-effect="non-scaling-stroke" d="
  M 343.43 370.26
  Q 343.61 370.14 343.50 370.66"
/>
<path stroke="#0b8bf7" vector-effect="non-scaling-stroke" d="
  M 343.50 370.66
  L 340.79 373.79
  A 0.23 0.23 0.0 0 1 340.39 373.66
  L 340.08 371.28"
/>
<path stroke="#005de4" vector-effect="non-scaling-stroke" d="
  M 397.61 322.21
  Q 397.38 322.25 397.15 322.29"
/>
<path stroke="#0065ed" vector-effect="non-scaling-stroke" d="
  M 397.15 322.29
  Q 387.90 322.74 384.39 322.64
  Q 363.97 322.10 343.53 322.21"
/>
<path stroke="#0148ca" vector-effect="non-scaling-stroke" d="
  M 397.40 350.68
  L 396.78 366.22
  A 0.79 0.77 -10.0 0 1 396.29 366.91
  Q 385.18 371.35 373.15 370.96
  Q 358.45 370.48 343.43 370.26"
/>
<path stroke="#014fc7" vector-effect="non-scaling-stroke" d="
  M 343.49 393.71
  L 343.50 396.75"
/>
<path stroke="#0156d8" vector-effect="non-scaling-stroke" d="
  M 343.50 396.75
  Q 342.28 397.96 340.84 398.20
  A 0.47 0.47 0.0 0 1 340.30 397.76
  L 340.11 393.28"
/>
<path stroke="#013aad" vector-effect="non-scaling-stroke" d="
  M 397.58 374.95
  L 397.00 384.97
  A 0.83 0.82 77.0 0 1 396.59 385.63
  Q 386.74 391.16 378.07 392.11
  C 368.35 393.18 356.38 392.94 343.49 393.71"
/>
<path stroke="#0156d8" vector-effect="non-scaling-stroke" d="
  M 343.49 393.71
  L 343.50 370.66"
/>
<path stroke="#012e8d" vector-effect="non-scaling-stroke" d="
  M 397.64 400.53
  L 396.31 415.31
  A 1.28 1.28 0.0 0 1 395.90 416.15
  Q 384.87 426.03 370.68 427.10
  Q 358.89 428.00 343.51 426.97"
/>
<path stroke="#013aad" vector-effect="non-scaling-stroke" d="
  M 343.51 426.97
  L 343.50 396.75"
/>
<path stroke="#01359e" vector-effect="non-scaling-stroke" d="
  M 343.51 426.97
  L 343.39 450.78"
/>
<path stroke="#013090" vector-effect="non-scaling-stroke" d="
  M 343.39 450.78
  L 343.22 454.68"
/>
<path stroke="#013aad" vector-effect="non-scaling-stroke" d="
  M 343.22 454.68
  Q 341.76 455.36 340.24 455.21"
/>
<path stroke="#01246f" vector-effect="non-scaling-stroke" d="
  M 397.45 451.29
  L 396.99 447.72
  A 0.48 0.47 -8.5 0 0 396.43 447.31
  C 378.23 450.66 361.22 450.41 343.39 450.78"
/>
<path stroke="#01297f" vector-effect="non-scaling-stroke" d="
  M 340.11 475.95
  Q 342.98 477.39 343.36 471.75
  Q 343.70 466.58 343.22 454.68"
/>
<path stroke="#166a84" vector-effect="non-scaling-stroke" d="
  M 192.79 287.98
  L 192.73 304.53"
/>
<path stroke="#125e84" vector-effect="non-scaling-stroke" d="
  M 192.73 304.53
  L 192.72 369.71"
/>
<path stroke="#024780" vector-effect="non-scaling-stroke" d="
  M 192.72 369.71
  L 192.74 477.06
  A 0.40 0.40 0.0 0 0 193.32 477.42
  Q 193.73 477.21 194.17 476.61"
/>
<path stroke="#00275d" vector-effect="non-scaling-stroke" d="
  M 194.17 476.61
  L 244.69 427.59
  A 2.21 2.20 -22.2 0 0 245.36 426.01
  Q 245.38 377.02 245.40 367.25
  Q 245.42 353.37 245.12 350.26
  Q 244.85 347.46 246.29 346.41
  Q 250.96 342.99 255.39 338.55
  C 260.14 333.81 263.97 330.57 267.91 327.59
  A 3.08 3.07 -19.0 0 0 269.13 325.10
  L 268.96 310.94"
/>
<path stroke="#002971" vector-effect="non-scaling-stroke" d="
  M 268.96 310.94
  L 269.10 290.97"
/>
<path stroke="#00327a" vector-effect="non-scaling-stroke" d="
  M 269.10 290.97
  Q 269.51 287.34 268.46 286.18"
/>
<path stroke="#407e84" vector-effect="non-scaling-stroke" d="
  M 268.46 286.18
  L 193.38 286.21
  A 0.55 0.55 0.0 0 0 192.83 286.75
  L 192.79 287.98"
/>
<path stroke="#40adf3" vector-effect="non-scaling-stroke" d="
  M 268.46 286.18
  Q 268.39 288.30 265.63 289.43"
/>
<path stroke="#40b2f7" vector-effect="non-scaling-stroke" d="
  M 265.63 289.43
  L 195.60 289.48"
/>
<path stroke="#55e5fd" vector-effect="non-scaling-stroke" d="
  M 195.60 289.48
  L 192.79 287.98"
/>
<path stroke="#169ef7" vector-effect="non-scaling-stroke" d="
  M 195.60 289.48
  L 195.70 310.95"
/>
<path stroke="#28c5fd" vector-effect="non-scaling-stroke" d="
  M 195.70 310.95
  L 195.32 314.50
  A 0.17 0.16 35.1 0 1 195.01 314.55
  Q 192.63 309.99 192.73 304.53"
/>
<path stroke="#0058e0" vector-effect="non-scaling-stroke" d="
  M 269.10 290.97
  C 264.57 298.14 259.22 303.15 250.65 304.43
  Q 242.43 305.65 234.20 306.86
  C 219.65 309.00 207.18 316.97 195.74 327.36"
/>
<path stroke="#128cf3" vector-effect="non-scaling-stroke" d="
  M 195.74 327.36
  L 195.73 319.08"
/>
<path stroke="#0065ed" vector-effect="non-scaling-stroke" d="
  M 195.73 319.08
  C 204.92 308.30 213.83 300.91 228.20 298.39
  C 241.00 296.14 253.32 295.78 265.63 289.43"
/>
<path stroke="#1291f7" vector-effect="non-scaling-stroke" d="
  M 195.73 319.08
  L 195.70 310.95"
/>
<path stroke="#14a2f9" vector-effect="non-scaling-stroke" d="
  M 195.64 368.67
  Q 194.39 370.30 192.72 369.71"
/>
<path stroke="#004dc3" vector-effect="non-scaling-stroke" d="
  M 268.96 310.94
  L 267.53 325.76
  A 0.89 0.88 80.8 0 1 267.02 326.48
  C 263.84 327.98 261.32 329.51 257.88 330.74
  Q 245.15 335.31 239.31 337.37
  C 228.05 341.35 218.06 346.24 210.26 355.32
  Q 203.19 363.56 196.26 377.88
  A 1.70 1.57 61.1 0 0 196.09 378.57
  L 195.87 385.30"
/>
<path stroke="#026de6" vector-effect="non-scaling-stroke" d="
  M 195.87 385.30
  L 195.64 368.67"
/>
<path stroke="#1284e9" vector-effect="non-scaling-stroke" d="
  M 195.64 368.67
  L 195.74 327.36"
/>
<path stroke="#026bd2" vector-effect="non-scaling-stroke" d="
  M 194.17 476.61
  Q 193.87 474.37 195.04 472.32
  A 2.63 2.56 -30.9 0 0 195.38 471.04
  L 195.38 464.39
  A 1.34 0.81 64.9 0 1 195.41 464.11
  Q 196.68 457.93 196.15 452.06
  Q 195.69 446.88 195.81 442.92
  Q 196.40 423.85 195.62 403.00
  Q 195.43 397.87 195.87 385.30"
/>
<path stroke="#176284" vector-effect="non-scaling-stroke" d="
  M 316.03 306.26
  L 261.59 353.52"
/>
<path stroke="#054d82" vector-effect="non-scaling-stroke" d="
  M 261.59 353.52
  L 261.73 383.03"
/>
<path stroke="#002971" vector-effect="non-scaling-stroke" d="
  M 261.73 383.03
  L 261.85 447.29"
/>
<path stroke="#011b54" vector-effect="non-scaling-stroke" d="
  M 261.85 447.29
  L 261.70 477.08"
/>
<path stroke="#011136" vector-effect="non-scaling-stroke" d="
  M 261.70 477.08
  Q 265.10 478.00 269.36 477.59
  Q 272.83 477.26 273.66 477.21
  Q 295.58 475.93 317.41 477.20
  A 0.51 0.50 -87.8 0 0 317.94 476.70
  L 318.24 444.00"
/>
<path stroke="#011644" vector-effect="non-scaling-stroke" d="
  M 318.24 444.00
  L 318.34 430.61"
/>
<path stroke="#011b54" vector-effect="non-scaling-stroke" d="
  M 318.34 430.61
  L 318.45 389.96"
/>
<path stroke="#012265" vector-effect="non-scaling-stroke" d="
  M 318.45 389.96
  L 318.53 365.92"
/>
<path stroke="#002971" vector-effect="non-scaling-stroke" d="
  M 318.53 365.92
  L 318.61 348.49"
/>
<path stroke="#00327a" vector-effect="non-scaling-stroke" d="
  M 318.61 348.49
  L 318.73 333.29"
/>
<path stroke="#00377e" vector-effect="non-scaling-stroke" d="
  M 318.73 333.29
  L 318.52 304.78
  A 0.40 0.40 0.0 0 0 317.84 304.49
  L 316.03 306.26"
/>
<path stroke="#0065ed" vector-effect="non-scaling-stroke" d="
  M 318.73 333.29
  Q 305.03 330.08 290.75 332.75"
/>
<path stroke="#1796f7" vector-effect="non-scaling-stroke" d="
  M 290.75 332.75
  Q 295.10 329.25 299.11 325.80
  C 302.08 323.24 305.32 321.20 308.15 318.09
  A 4.88 4.28 -0.1 0 1 308.89 317.44
  Q 313.91 313.84 315.15 312.38
  Q 317.51 309.62 316.03 306.26"
/>
<path stroke="#1791f3" vector-effect="non-scaling-stroke" d="
  M 290.75 332.75
  Q 285.74 338.07 274.84 346.11
  Q 272.57 347.78 266.89 353.91"
/>
<path stroke="#1cacfb" vector-effect="non-scaling-stroke" d="
  M 266.89 353.91
  Q 264.20 355.53 261.59 353.52"
/>
<path stroke="#0058e0" vector-effect="non-scaling-stroke" d="
  M 318.61 348.49
  Q 304.61 351.05 290.45 353.18
  Q 277.09 355.19 265.59 362.13
  A 1.09 1.07 -11.2 0 0 265.08 362.88
  L 264.51 366.29"
/>
<path stroke="#057cf1" vector-effect="non-scaling-stroke" d="
  M 264.51 366.29
  C 264.40 361.38 264.23 357.63 266.89 353.91"
/>
<path stroke="#0148ca" vector-effect="non-scaling-stroke" d="
  M 318.53 365.92
  Q 305.73 369.91 292.41 370.61
  Q 273.48 371.60 265.34 371.95
  A 0.56 0.56 0.0 0 0 264.81 372.50
  L 264.45 398.71"
/>
<path stroke="#0141b9" vector-effect="non-scaling-stroke" d="
  M 264.45 398.71
  L 264.26 435.82"
/>
<path stroke="#013caa" vector-effect="non-scaling-stroke" d="
  M 264.26 435.82
  L 263.93 450.21"
/>
<path stroke="#0141b9" vector-effect="non-scaling-stroke" d="
  M 263.93 450.21
  Q 263.78 450.84 263.73 450.91
  A 0.86 0.84 62.4 0 1 262.25 450.43
  L 261.85 447.29"
/>
<path stroke="#0573e8" vector-effect="non-scaling-stroke" d="
  M 261.73 383.03
  L 262.34 390.74
  A 1.81 1.77 -70.4 0 0 262.87 391.89
  L 263.32 392.34
  A 0.38 0.38 0.0 0 0 263.97 392.08
  L 264.51 366.29"
/>
<path stroke="#013aad" vector-effect="non-scaling-stroke" d="
  M 318.45 389.96
  L 318.05 393.07
  A 0.55 0.54 -85.4 0 1 317.49 393.55
  Q 291.28 392.65 265.13 394.59
  A 0.54 0.54 0.0 0 0 264.62 395.11
  L 264.45 398.71"
/>
<path stroke="#012e8d" vector-effect="non-scaling-stroke" d="
  M 318.34 430.61
  Q 291.59 428.82 265.37 431.94
  A 0.67 0.66 1.1 0 0 264.79 432.49
  L 264.26 435.82"
/>
<path stroke="#01246f" vector-effect="non-scaling-stroke" d="
  M 318.24 444.00
  L 265.24 446.48
  A 0.54 0.53 -90.0 0 0 264.73 447.00
  L 264.36 461.04"
/>
<path stroke="#012e8d" vector-effect="non-scaling-stroke" d="
  M 264.36 461.04
  L 263.93 450.21"
/>
<path stroke="#01297f" vector-effect="non-scaling-stroke" d="
  M 261.70 477.08
  L 263.43 475.00
  A 3.79 3.73 71.1 0 0 264.19 473.41
  C 265.03 469.47 264.50 465.07 264.36 461.04"
/>
</g>
<path fill="#00030b" d="
  M 529.00 0.00
  L 529.00 529.00
  L 0.00 529.00
  L 0.00 0.00
  L 529.00 0.00
  Z
  M 26.71 91.28
  L 26.56 142.98
  Q 26.51 143.42 26.65 143.74
  A 0.61 0.61 0.0 0 0 27.21 144.11
  L 192.70 144.08
  L 192.73 242.20
  L 190.99 243.69
  Q 188.99 244.62 187.96 245.98
  L 185.10 248.37
  L 113.43 312.75
  A 1.25 1.24 -53.2 0 1 112.06 312.95
  C 106.64 310.39 100.72 310.87 95.71 314.26
  Q 87.96 319.49 89.07 330.04
  Q 89.78 334.94 93.16 338.27
  Q 95.78 341.47 99.52 342.86
  Q 114.46 346.49 120.28 332.73
  Q 121.78 328.01 120.66 323.94
  Q 121.16 322.49 122.75 321.24
  Q 124.95 319.51 124.99 319.48
  Q 147.64 299.00 170.58 278.86
  C 175.00 274.97 181.28 268.81 186.96 264.15
  L 188.53 262.78
  Q 190.07 261.54 191.22 259.71
  L 194.07 258.88
  L 268.08 258.77
  A 0.85 0.85 0.0 0 0 268.85 258.28
  Q 269.13 257.69 269.05 256.81
  L 268.92 229.46
  L 268.88 217.71
  L 269.02 175.45
  L 268.88 155.77
  L 268.95 144.59
  A 0.55 0.55 0.0 0 1 269.50 144.04
  L 393.34 144.04
  A 1.28 1.26 -65.0 0 0 394.17 143.73
  C 397.02 141.30 399.08 138.91 402.91 137.44
  Q 414.80 132.88 425.78 139.02
  Q 427.04 140.18 427.86 139.36
  Q 453.55 113.55 479.23 87.73
  Q 486.56 80.36 494.15 72.58
  Q 495.32 71.75 495.73 70.69
  A 0.36 0.36 0.0 0 0 495.40 70.19
  L 27.13 70.19
  A 0.38 0.38 0.0 0 0 26.75 70.57
  L 26.71 91.28
  Z
  M 360.48 201.71
  L 302.32 256.09
  A 1.69 1.68 -53.7 0 1 300.45 256.38
  C 295.01 253.79 289.21 254.18 284.19 257.75
  Q 275.91 263.63 277.66 274.98
  Q 278.91 280.62 283.14 283.85
  Q 285.43 286.10 287.55 286.64
  C 293.25 288.10 300.19 287.13 304.50 282.95
  Q 307.49 280.06 308.81 275.90
  Q 310.13 272.43 309.57 268.60
  L 309.46 266.49
  L 358.02 221.53
  L 404.36 178.59
  A 1.50 1.50 0.0 0 1 405.37 178.20
  Q 406.90 178.20 408.42 178.90
  C 417.84 180.91 427.08 175.09 428.59 165.47
  Q 429.76 154.84 421.10 149.25
  Q 415.46 145.80 409.79 147.05
  C 401.18 148.94 395.62 155.89 396.74 165.14
  Q 396.92 166.60 396.93 167.63
  A 1.62 1.59 -21.8 0 1 396.40 168.84
  L 360.48 201.71
  Z
  M 473.77 170.97
  L 418.93 217.72
  L 418.98 305.54
  L 419.11 361.79
  L 419.00 392.79
  L 419.05 449.54
  Q 419.02 463.33 418.99 477.12
  Q 418.99 477.60 420.43 477.24
  Q 422.23 476.75 424.59 476.86
  Q 434.83 477.35 443.47 476.89
  Q 455.41 476.26 459.05 476.43
  Q 459.68 476.45 474.62 476.66
  A 0.67 0.67 0.0 0 0 475.30 475.99
  L 475.71 428.46
  L 475.79 418.24
  L 475.90 389.21
  L 475.79 382.91
  L 475.88 368.46
  L 475.93 350.70
  L 475.99 326.51
  L 475.97 314.49
  L 475.96 298.99
  L 475.98 282.55
  L 475.97 272.04
  L 476.02 242.72
  L 476.01 217.74
  L 476.11 169.86
  A 0.42 0.42 0.0 0 0 475.60 169.45
  Q 474.34 169.73 473.77 170.97
  Z
  M 340.27 285.67
  L 340.09 318.29
  L 340.08 371.28
  L 340.11 393.28
  L 340.24 455.21
  L 340.11 475.95
  Q 339.77 476.90 340.67 477.38
  A 1.13 1.08 -32.1 0 0 341.25 477.50
  Q 346.85 477.03 353.25 476.97
  Q 375.96 476.74 396.12 477.17
  A 0.70 0.70 0.0 0 0 396.80 476.69
  Q 397.52 474.43 397.46 472.50
  Q 397.04 460.70 397.45 451.29
  L 397.64 400.53
  L 397.58 374.95
  L 397.40 350.68
  L 397.61 322.21
  L 397.52 305.96
  L 397.39 295.44
  L 397.50 282.52
  L 397.52 274.36
  L 397.48 237.72
  L 397.43 236.81
  A 0.42 0.41 -22.1 0 0 396.74 236.52
  L 340.27 285.67
  Z
  M 192.79 287.98
  L 192.73 304.53
  L 192.72 369.71
  L 192.74 477.06
  A 0.40 0.40 0.0 0 0 193.32 477.42
  Q 193.73 477.21 194.17 476.61
  L 244.69 427.59
  A 2.21 2.20 -22.2 0 0 245.36 426.01
  Q 245.38 377.02 245.40 367.25
  Q 245.42 353.37 245.12 350.26
  Q 244.85 347.46 246.29 346.41
  Q 250.96 342.99 255.39 338.55
  C 260.14 333.81 263.97 330.57 267.91 327.59
  A 3.08 3.07 -19.0 0 0 269.13 325.10
  L 268.96 310.94
  L 269.10 290.97
  Q 269.51 287.34 268.46 286.18
  L 193.38 286.21
  A 0.55 0.55 0.0 0 0 192.83 286.75
  L 192.79 287.98
  Z
  M 316.03 306.26
  L 261.59 353.52
  L 261.73 383.03
  L 261.85 447.29
  L 261.70 477.08
  Q 265.10 478.00 269.36 477.59
  Q 272.83 477.26 273.66 477.21
  Q 295.58 475.93 317.41 477.20
  A 0.51 0.50 -87.8 0 0 317.94 476.70
  L 318.24 444.00
  L 318.34 430.61
  L 318.45 389.96
  L 318.53 365.92
  L 318.61 348.49
  L 318.73 333.29
  L 318.52 304.78
  A 0.40 0.40 0.0 0 0 317.84 304.49
  L 316.03 306.26
  Z"
/>
<path fill="#b9ffff" d="
  M 494.15 72.58
  Q 491.32 72.29 488.51 73.84
  A 2.02 1.95 29.8 0 1 487.56 74.08
  L 455.71 73.81
  Q 450.48 73.55 445.25 73.55
  Q 324.13 73.55 37.49 73.60
  Q 34.98 73.60 31.20 73.99
  A 0.58 0.57 88.3 0 0 30.69 74.54
  L 30.20 86.32
  L 30.18 90.44
  Q 28.63 91.32 26.71 91.28
  L 26.75 70.57
  A 0.38 0.38 0.0 0 1 27.13 70.19
  L 495.40 70.19
  A 0.36 0.36 0.0 0 1 495.73 70.69
  Q 495.32 71.75 494.15 72.58
  Z"
/>
<path fill="#1de6fe" d="
  M 494.15 72.58
  Q 486.56 80.36 479.23 87.73
  Q 453.55 113.55 427.86 139.36
  Q 427.04 140.18 425.78 139.02
  Q 420.76 131.36 417.03 123.02
  C 412.39 112.63 404.68 107.42 394.23 103.05
  Q 408.33 100.97 422.40 99.77
  Q 427.43 99.35 430.51 98.22
  C 435.17 96.51 434.92 92.70 436.95 88.96
  Q 438.99 85.18 442.00 79.18
  Q 443.19 76.80 447.39 74.40
  A 1.81 1.79 28.5 0 1 448.21 74.16
  L 455.71 73.81
  L 487.56 74.08
  A 2.02 1.95 29.8 0 0 488.51 73.84
  Q 491.32 72.29 494.15 72.58
  Z"
/>
<path fill="#2bd1fd" d="
  M 455.71 73.81
  L 448.21 74.16
  A 1.81 1.79 28.5 0 0 447.39 74.40
  Q 443.19 76.80 442.00 79.18
  Q 438.99 85.18 436.95 88.96
  C 434.92 92.70 435.17 96.51 430.51 98.22
  Q 427.43 99.35 422.40 99.77
  Q 408.33 100.97 394.23 103.05
  L 385.30 104.07
  Q 376.96 102.24 370.44 97.25
  L 378.61 92.60
  A 1.19 1.18 -23.8 0 0 379.16 91.19
  C 378.19 88.20 367.78 87.61 364.92 87.40
  Q 343.75 85.79 325.55 87.58
  C 303.95 89.71 273.36 94.42 247.68 95.69
  Q 235.94 96.27 166.87 99.30
  Q 158.47 99.66 151.49 100.46
  Q 150.24 100.60 149.55 101.03
  A 0.50 0.50 0.0 0 0 149.67 101.94
  Q 154.10 103.27 158.28 105.05
  Q 161.53 106.44 161.43 109.80
  Q 153.27 112.19 145.56 115.86
  C 131.77 122.42 138.61 130.92 143.65 140.34
  L 107.89 140.12
  C 104.37 133.62 100.40 127.54 95.12 122.29
  C 91.52 118.70 86.59 115.71 83.26 112.65
  C 76.53 106.44 88.83 103.41 81.56 98.99
  C 77.23 96.37 74.44 94.85 71.33 91.85
  Q 68.30 88.92 67.82 88.61
  Q 62.62 85.23 55.51 84.86
  Q 42.91 84.22 30.20 86.32
  L 30.69 74.54
  A 0.58 0.57 88.3 0 1 31.20 73.99
  Q 34.98 73.60 37.49 73.60
  Q 324.13 73.55 445.25 73.55
  Q 450.48 73.55 455.71 73.81
  Z"
/>
<path fill="#1de6fe" d="
  M 107.89 140.12
  Q 86.22 141.00 64.32 140.85
  Q 46.71 140.72 28.91 140.97
  Q 30.12 139.79 30.15 138.99
  Q 30.62 122.20 30.18 90.44
  L 30.20 86.32
  Q 42.91 84.22 55.51 84.86
  Q 62.62 85.23 67.82 88.61
  Q 68.30 88.92 71.33 91.85
  C 74.44 94.85 77.23 96.37 81.56 98.99
  C 88.83 103.41 76.53 106.44 83.26 112.65
  C 86.59 115.71 91.52 118.70 95.12 122.29
  C 100.40 127.54 104.37 133.62 107.89 140.12
  Z"
/>
<path fill="#2ec1fc" d="
  M 370.44 97.25
  Q 345.03 97.77 334.87 98.83
  C 308.82 101.57 281.73 104.33 253.44 105.84
  C 223.59 107.43 192.22 110.11 161.43 109.80
  Q 161.53 106.44 158.28 105.05
  Q 154.10 103.27 149.67 101.94
  A 0.50 0.50 0.0 0 1 149.55 101.03
  Q 150.24 100.60 151.49 100.46
  Q 158.47 99.66 166.87 99.30
  Q 235.94 96.27 247.68 95.69
  C 273.36 94.42 303.95 89.71 325.55 87.58
  Q 343.75 85.79 364.92 87.40
  C 367.78 87.61 378.19 88.20 379.16 91.19
  A 1.19 1.18 -23.8 0 1 378.61 92.60
  L 370.44 97.25
  Z"
/>
<path fill="#7ff9fc" d="
  M 30.18 90.44
  Q 30.62 122.20 30.15 138.99
  Q 30.12 139.79 28.91 140.97
  Q 27.80 143.03 26.56 142.98
  L 26.71 91.28
  Q 28.63 91.32 30.18 90.44
  Z"
/>
<path fill="#24b8fc" d="
  M 370.44 97.25
  Q 376.96 102.24 385.30 104.07
  Q 373.30 106.52 364.72 106.80
  C 355.72 107.09 341.66 106.26 330.95 106.86
  Q 318.82 107.53 315.49 107.94
  C 290.72 110.98 279.36 112.70 259.44 114.10
  C 243.96 115.18 231.78 115.87 218.02 119.13
  Q 208.07 121.50 201.23 126.12
  Q 199.45 127.33 194.61 132.40
  Q 190.12 137.11 182.82 138.33
  C 169.48 140.56 156.71 140.37 143.65 140.34
  C 138.61 130.92 131.77 122.42 145.56 115.86
  Q 153.27 112.19 161.43 109.80
  C 192.22 110.11 223.59 107.43 253.44 105.84
  C 281.73 104.33 308.82 101.57 334.87 98.83
  Q 345.03 97.77 370.44 97.25
  Z"
/>
<path fill="#16acfd" d="
  M 394.23 103.05
  C 404.68 107.42 412.39 112.63 417.03 123.02
  Q 420.76 131.36 425.78 139.02
  Q 414.80 132.88 402.91 137.44
  C 399.08 138.91 397.02 141.30 394.17 143.73
  A 1.28 1.26 -65.0 0 1 393.34 144.04
  L 269.50 144.04
  A 0.55 0.55 0.0 0 0 268.95 144.59
  L 268.88 155.77
  L 268.60 162.61
  A 0.67 0.65 84.2 0 1 268.11 163.23
  Q 260.42 165.25 253.01 165.83
  C 245.51 166.42 233.91 166.08 225.53 167.18
  Q 210.30 169.17 196.04 175.67
  L 195.83 144.57
  A 1.17 1.16 79.1 0 0 194.24 143.49
  L 192.70 144.08
  L 27.21 144.11
  A 0.61 0.61 0.0 0 1 26.65 143.74
  Q 26.51 143.42 26.56 142.98
  Q 27.80 143.03 28.91 140.97
  Q 46.71 140.72 64.32 140.85
  Q 86.22 141.00 107.89 140.12
  L 143.65 140.34
  C 156.71 140.37 169.48 140.56 182.82 138.33
  Q 190.12 137.11 194.61 132.40
  Q 199.45 127.33 201.23 126.12
  Q 208.07 121.50 218.02 119.13
  C 231.78 115.87 243.96 115.18 259.44 114.10
  C 279.36 112.70 290.72 110.98 315.49 107.94
  Q 318.82 107.53 330.95 106.86
  C 341.66 106.26 355.72 107.09 364.72 106.80
  Q 373.30 106.52 385.30 104.07
  L 394.23 103.05
  Z"
/>
<path fill="#2bd1fd" d="
  M 196.04 175.67
  L 196.00 200.63
  L 195.73 241.50
  L 195.61 246.79
  L 195.71 254.41
  L 195.40 255.28
  Q 194.29 257.67 192.62 258.62
  L 192.73 242.20
  L 192.70 144.08
  L 194.24 143.49
  A 1.17 1.16 79.1 0 1 195.83 144.57
  L 196.04 175.67
  Z"
/>
<path fill="#b9ffff" d="
  M 421.10 149.25
  Q 420.66 152.36 417.49 151.61
  Q 401.90 147.93 399.94 162.78
  C 399.75 164.22 400.02 166.15 399.94 167.65
  A 3.05 3.02 -20.2 0 1 398.99 169.68
  L 364.48 202.23
  L 360.48 201.71
  L 396.40 168.84
  A 1.62 1.59 -21.8 0 0 396.93 167.63
  Q 396.92 166.60 396.74 165.14
  C 395.62 155.89 401.18 148.94 409.79 147.05
  Q 415.46 145.80 421.10 149.25
  Z"
/>
<path fill="#1de6fe" d="
  M 428.59 165.47
  Q 419.94 174.21 408.42 178.90
  Q 406.90 178.20 405.37 178.20
  A 1.50 1.50 0.0 0 0 404.36 178.59
  L 358.02 221.53
  Q 354.84 217.56 349.99 219.50
  Q 344.33 221.76 339.16 225.48
  C 344.00 220.20 351.22 214.23 354.75 210.98
  Q 359.55 206.55 364.48 202.23
  L 398.99 169.68
  A 3.05 3.02 -20.2 0 0 399.94 167.65
  C 400.02 166.15 399.75 164.22 399.94 162.78
  Q 401.90 147.93 417.49 151.61
  Q 420.66 152.36 421.10 149.25
  Q 429.76 154.84 428.59 165.47
  Z"
/>
<path fill="#0997f9" d="
  M 269.02 175.45
  Q 268.66 176.51 268.72 177.96
  L 268.37 188.91
  A 0.40 0.39 -80.5 0 1 267.86 189.28
  C 248.95 183.47 227.64 180.21 209.58 190.79
  Q 203.18 194.54 196.00 200.63
  L 196.04 175.67
  Q 210.30 169.17 225.53 167.18
  C 233.91 166.08 245.51 166.42 253.01 165.83
  Q 260.42 165.25 268.11 163.23
  A 0.67 0.65 84.2 0 0 268.60 162.61
  L 268.88 155.77
  L 269.02 175.45
  Z"
/>
<path fill="#0997f9" d="
  M 428.59 165.47
  C 427.08 175.09 417.84 180.91 408.42 178.90
  Q 419.94 174.21 428.59 165.47
  Z"
/>
<path fill="#1de6fe" d="
  M 476.01 217.74
  Q 451.28 216.17 426.35 216.22
  C 431.09 211.71 436.76 207.45 441.12 203.50
  C 446.48 198.65 451.31 195.41 456.28 190.48
  Q 460.19 186.60 467.05 181.70
  Q 467.52 181.36 467.95 181.36
  A 0.24 0.20 -58.3 0 0 468.12 181.30
  L 472.38 177.33
  A 0.83 0.78 88.1 0 0 472.52 177.17
  Q 474.56 174.16 473.77 170.97
  Q 474.34 169.73 475.60 169.45
  A 0.42 0.42 0.0 0 1 476.11 169.86
  L 476.01 217.74
  Z"
/>
<path fill="#7ff9fc" d="
  M 473.77 170.97
  Q 474.56 174.16 472.52 177.17
  A 0.83 0.78 88.1 0 1 472.38 177.33
  L 468.12 181.30
  A 0.24 0.20 -58.3 0 1 467.95 181.36
  Q 467.52 181.36 467.05 181.70
  Q 460.19 186.60 456.28 190.48
  C 451.31 195.41 446.48 198.65 441.12 203.50
  C 436.76 207.45 431.09 211.71 426.35 216.22
  L 422.78 219.46
  Q 420.97 219.19 418.93 217.72
  L 473.77 170.97
  Z"
/>
<path fill="#0082fa" d="
  M 269.02 175.45
  L 268.88 217.71
  L 268.59 219.53
  A 0.36 0.35 -71.3 0 1 268.07 219.79
  C 257.73 214.16 246.21 209.04 234.19 209.74
  C 221.81 210.46 212.20 218.04 205.41 228.00
  Q 200.70 234.89 199.55 236.92
  Q 196.78 241.77 195.61 246.79
  L 195.73 241.50
  Q 196.79 233.88 201.69 224.01
  Q 207.11 213.08 213.65 207.96
  C 230.42 194.85 251.51 201.12 268.18 210.19
  A 0.33 0.33 0.0 0 0 268.67 209.90
  L 268.72 177.96
  Q 268.66 176.51 269.02 175.45
  Z"
/>
<path fill="#048bf5" d="
  M 268.72 177.96
  L 268.67 209.90
  A 0.33 0.33 0.0 0 1 268.18 210.19
  C 251.51 201.12 230.42 194.85 213.65 207.96
  Q 207.11 213.08 201.69 224.01
  Q 196.79 233.88 195.73 241.50
  L 196.00 200.63
  Q 203.18 194.54 209.58 190.79
  C 227.64 180.21 248.95 183.47 267.86 189.28
  A 0.40 0.39 -80.5 0 0 268.37 188.91
  L 268.72 177.96
  Z"
/>
<path fill="#7ff9fc" d="
  M 360.48 201.71
  L 364.48 202.23
  Q 359.55 206.55 354.75 210.98
  C 351.22 214.23 344.00 220.20 339.16 225.48
  C 332.64 231.29 326.02 236.77 319.73 243.21
  C 314.08 248.99 309.22 253.00 303.33 258.87
  A 3.38 3.37 -58.0 0 1 299.85 259.68
  Q 290.69 256.57 284.52 262.61
  Q 282.21 264.88 281.65 267.60
  Q 280.92 271.09 281.13 273.75
  A 1.86 1.60 40.6 0 0 281.17 274.01
  L 282.22 277.97
  A 0.79 0.78 -73.0 0 1 280.87 278.69
  L 277.66 274.98
  Q 275.91 263.63 284.19 257.75
  C 289.21 254.18 295.01 253.79 300.45 256.38
  A 1.69 1.68 -53.7 0 0 302.32 256.09
  L 360.48 201.71
  Z"
/>
<path fill="#0075f6" d="
  M 268.88 217.71
  L 268.92 229.46
  L 268.27 255.01
  A 0.09 0.09 0.0 0 1 268.10 255.04
  C 262.74 242.56 254.59 229.29 240.41 225.63
  Q 225.35 221.74 213.30 234.31
  Q 206.83 241.06 195.71 254.41
  L 195.61 246.79
  Q 196.78 241.77 199.55 236.92
  Q 200.70 234.89 205.41 228.00
  C 212.20 218.04 221.81 210.46 234.19 209.74
  C 246.21 209.04 257.73 214.16 268.07 219.79
  A 0.36 0.35 -71.3 0 0 268.59 219.53
  L 268.88 217.71
  Z"
/>
<path fill="#16acfd" d="
  M 476.01 217.74
  L 476.02 242.72
  L 422.47 237.23
  Q 421.84 228.21 422.78 219.46
  L 426.35 216.22
  Q 451.28 216.17 476.01 217.74
  Z"
/>
<path fill="#16acfd" d="
  M 358.02 221.53
  L 309.46 266.49
  Q 304.64 268.80 299.77 271.15
  Q 293.90 273.97 291.67 276.42
  Q 288.50 279.88 287.04 284.89
  L 287.28 285.34
  L 283.14 283.85
  Q 278.91 280.62 277.66 274.98
  L 280.87 278.69
  A 0.79 0.78 -73.0 0 0 282.22 277.97
  L 281.17 274.01
  A 1.86 1.60 40.6 0 1 281.13 273.75
  Q 280.92 271.09 281.65 267.60
  Q 282.21 264.88 284.52 262.61
  Q 290.69 256.57 299.85 259.68
  A 3.38 3.37 -58.0 0 0 303.33 258.87
  C 309.22 253.00 314.08 248.99 319.73 243.21
  C 326.02 236.77 332.64 231.29 339.16 225.48
  Q 344.33 221.76 349.99 219.50
  Q 354.84 217.56 358.02 221.53
  Z"
/>
<path fill="#2bd1fd" d="
  M 422.78 219.46
  Q 421.84 228.21 422.47 237.23
  L 422.45 264.42
  L 422.30 272.04
  L 422.35 291.98
  L 421.61 321.15
  L 420.58 324.02
  A 0.28 0.28 0.0 0 1 420.07 324.05
  Q 419.24 322.47 419.25 321.50
  Q 419.32 313.51 418.98 305.54
  L 418.93 217.72
  Q 420.97 219.19 422.78 219.46
  Z"
/>
<path fill="#006af1" d="
  M 268.92 229.46
  L 269.05 256.81
  Q 263.96 253.28 253.38 247.43
  C 235.48 237.53 223.12 244.07 208.43 254.82
  A 1.57 1.48 -61.7 0 1 207.53 255.12
  L 195.40 255.28
  L 195.71 254.41
  Q 206.83 241.06 213.30 234.31
  Q 225.35 221.74 240.41 225.63
  C 254.59 229.29 262.74 242.56 268.10 255.04
  A 0.09 0.09 0.0 0 0 268.27 255.01
  L 268.92 229.46
  Z"
/>
<path fill="#7ff9fc" d="
  M 397.48 237.72
  L 394.39 243.66
  A 2.38 2.31 -7.2 0 1 393.87 244.31
  L 365.70 268.24
  L 347.72 283.92
  L 343.67 287.65
  Q 340.48 287.33 340.27 285.67
  L 396.74 236.52
  A 0.42 0.41 -22.1 0 1 397.43 236.81
  L 397.48 237.72
  Z"
/>
<path fill="#0060e9" d="
  M 269.05 256.81
  Q 269.13 257.69 268.85 258.28
  A 0.85 0.85 0.0 0 1 268.08 258.77
  L 194.07 258.88
  Q 192.80 259.09 192.62 258.62
  Q 194.29 257.67 195.40 255.28
  L 207.53 255.12
  A 1.57 1.48 -61.7 0 0 208.43 254.82
  C 223.12 244.07 235.48 237.53 253.38 247.43
  Q 263.96 253.28 269.05 256.81
  Z"
/>
<path fill="#0997f9" d="
  M 476.02 242.72
  L 475.97 272.04
  Q 449.94 263.37 422.45 264.42
  L 422.47 237.23
  L 476.02 242.72
  Z"
/>
<path fill="#0997f9" d="
  M 397.48 237.72
  L 397.52 274.36
  Q 382.02 268.56 365.70 268.24
  L 393.87 244.31
  A 2.38 2.31 -7.2 0 0 394.39 243.66
  L 397.48 237.72
  Z"
/>
<path fill="#011f61" d="
  M 192.73 242.20
  L 192.62 258.62
  Q 192.80 259.09 194.07 258.88
  L 191.22 259.71
  Q 189.07 255.26 189.78 251.57
  Q 190.51 247.74 190.99 243.69
  L 192.73 242.20
  Z"
/>
<path fill="#004aaf" d="
  M 190.99 243.69
  Q 190.51 247.74 189.78 251.57
  Q 189.07 255.26 191.22 259.71
  Q 190.07 261.54 188.53 262.78
  L 187.96 245.98
  Q 188.99 244.62 190.99 243.69
  Z"
/>
<path fill="#006af1" d="
  M 187.96 245.98
  L 188.53 262.78
  L 186.96 264.15
  L 184.95 250.70
  Q 185.99 248.91 185.10 248.37
  L 187.96 245.98
  Z"
/>
<path fill="#7ff9fc" d="
  M 185.10 248.37
  Q 185.99 248.91 184.95 250.70
  Q 180.81 257.11 178.25 259.00
  Q 170.71 264.55 164.01 271.48
  Q 162.93 272.59 160.81 274.29
  C 157.62 276.86 155.72 278.11 152.83 281.34
  Q 150.62 283.81 148.17 285.35
  C 146.46 286.42 145.27 288.57 143.67 289.40
  A 1.03 1.01 -2.9 0 0 143.21 289.90
  Q 142.90 290.60 142.60 290.83
  C 139.47 293.10 137.60 295.38 134.47 297.70
  Q 132.55 299.13 128.15 303.40
  Q 125.85 305.63 114.30 316.33
  A 1.24 1.22 -56.5 0 1 113.05 316.59
  Q 97.87 311.21 92.33 325.86
  L 92.31 331.07
  A 1.35 1.35 0.0 0 1 92.04 331.88
  C 91.49 332.64 91.16 333.35 91.13 334.19
  A 0.01 0.01 0.0 0 1 91.11 334.19
  L 89.07 330.04
  Q 87.96 319.49 95.71 314.26
  C 100.72 310.87 106.64 310.39 112.06 312.95
  A 1.25 1.24 -53.2 0 0 113.43 312.75
  L 185.10 248.37
  Z"
/>
<path fill="#16acfd" d="
  M 184.95 250.70
  L 186.96 264.15
  C 181.28 268.81 175.00 274.97 170.58 278.86
  Q 147.64 299.00 124.99 319.48
  Q 124.95 319.51 122.75 321.24
  Q 121.16 322.49 120.66 323.94
  Q 115.17 326.91 109.70 329.87
  Q 101.63 334.25 100.42 342.65
  Q 99.86 342.65 99.52 342.86
  Q 95.78 341.47 93.16 338.27
  Q 95.05 338.30 94.68 337.60
  Q 91.97 332.48 92.33 325.86
  Q 97.87 311.21 113.05 316.59
  A 1.24 1.22 -56.5 0 0 114.30 316.33
  Q 125.85 305.63 128.15 303.40
  Q 132.55 299.13 134.47 297.70
  C 137.60 295.38 139.47 293.10 142.60 290.83
  Q 142.90 290.60 143.21 289.90
  A 1.03 1.01 -2.9 0 1 143.67 289.40
  C 145.27 288.57 146.46 286.42 148.17 285.35
  Q 150.62 283.81 152.83 281.34
  C 155.72 278.11 157.62 276.86 160.81 274.29
  Q 162.93 272.59 164.01 271.48
  Q 170.71 264.55 178.25 259.00
  Q 180.81 257.11 184.95 250.70
  Z"
/>
<path fill="#048bf5" d="
  M 475.97 272.04
  L 475.98 282.55
  Q 455.79 277.75 438.34 276.81
  Q 434.79 276.61 423.09 276.74
  A 0.53 0.53 0.0 0 1 422.56 276.25
  L 422.30 272.04
  L 422.45 264.42
  Q 449.94 263.37 475.97 272.04
  Z"
/>
<path fill="#048bf5" d="
  M 397.52 274.36
  L 397.50 282.52
  L 347.72 283.92
  L 365.70 268.24
  Q 382.02 268.56 397.52 274.36
  Z"
/>
<path fill="#0997f9" d="
  M 309.46 266.49
  L 309.57 268.60
  C 306.38 271.94 303.11 272.44 299.74 273.68
  C 294.07 275.77 290.44 280.15 287.04 284.89
  Q 288.50 279.88 291.67 276.42
  Q 293.90 273.97 299.77 271.15
  Q 304.64 268.80 309.46 266.49
  Z"
/>
<path fill="#048bf5" d="
  M 309.57 268.60
  Q 310.13 272.43 308.81 275.90
  Q 304.20 278.50 299.99 281.20
  Q 293.98 285.05 287.28 285.34
  L 287.04 284.89
  C 290.44 280.15 294.07 275.77 299.74 273.68
  C 303.11 272.44 306.38 271.94 309.57 268.60
  Z"
/>
<path fill="#0082fa" d="
  M 475.98 282.55
  L 475.96 298.99
  C 458.33 293.25 441.05 289.01 422.35 291.98
  L 422.30 272.04
  L 422.56 276.25
  A 0.53 0.53 0.0 0 0 423.09 276.74
  Q 434.79 276.61 438.34 276.81
  Q 455.79 277.75 475.98 282.55
  Z"
/>
<path fill="#0060e9" d="
  M 308.81 275.90
  Q 307.49 280.06 304.50 282.95
  C 300.19 287.13 293.25 288.10 287.55 286.64
  Q 285.43 286.10 283.14 283.85
  L 287.28 285.34
  Q 293.98 285.05 299.99 281.20
  Q 304.20 278.50 308.81 275.90
  Z"
/>
<path fill="#0082fa" d="
  M 397.50 282.52
  L 397.39 295.44
  L 397.15 301.12
  A 0.41 0.41 0.0 0 1 396.67 301.51
  Q 390.03 300.45 383.42 299.53
  Q 363.56 296.75 343.55 298.79
  L 343.67 287.65
  L 347.72 283.92
  L 397.50 282.52
  Z"
/>
<path fill="#2ec1fc" d="
  M 340.27 285.67
  Q 340.48 287.33 343.67 287.65
  L 343.55 298.79
  L 343.61 310.93
  L 343.53 322.21
  L 343.48 323.02
  Q 342.15 323.61 340.88 323.37
  A 0.65 0.65 0.0 0 1 340.35 322.77
  L 340.09 318.29
  L 340.27 285.67
  Z"
/>
<path fill="#7ff9fc" d="
  M 268.46 286.18
  Q 268.39 288.30 265.63 289.43
  L 195.60 289.48
  L 192.79 287.98
  L 192.83 286.75
  A 0.55 0.55 0.0 0 1 193.38 286.21
  L 268.46 286.18
  Z"
/>
<path fill="#0060e9" d="
  M 269.10 290.97
  C 264.57 298.14 259.22 303.15 250.65 304.43
  Q 242.43 305.65 234.20 306.86
  C 219.65 309.00 207.18 316.97 195.74 327.36
  L 195.73 319.08
  C 204.92 308.30 213.83 300.91 228.20 298.39
  C 241.00 296.14 253.32 295.78 265.63 289.43
  Q 268.39 288.30 268.46 286.18
  Q 269.51 287.34 269.10 290.97
  Z"
/>
<path fill="#0075f6" d="
  M 475.96 298.99
  L 475.97 314.49
  C 458.00 309.81 441.26 306.61 422.84 307.89
  A 0.55 0.54 88.9 0 0 422.33 308.43
  L 421.92 328.14
  L 421.75 358.72
  L 421.61 321.15
  L 422.35 291.98
  C 441.05 289.01 458.33 293.25 475.96 298.99
  Z"
/>
<path fill="#2bd1fd" d="
  M 195.60 289.48
  L 195.70 310.95
  L 195.32 314.50
  A 0.17 0.16 35.1 0 1 195.01 314.55
  Q 192.63 309.99 192.73 304.53
  L 192.79 287.98
  L 195.60 289.48
  Z"
/>
<path fill="#006af1" d="
  M 195.60 289.48
  L 265.63 289.43
  C 253.32 295.78 241.00 296.14 228.20 298.39
  C 213.83 300.91 204.92 308.30 195.73 319.08
  L 195.70 310.95
  L 195.60 289.48
  Z"
/>
<path fill="#004fd6" d="
  M 269.10 290.97
  L 268.96 310.94
  L 267.53 325.76
  A 0.89 0.88 80.8 0 1 267.02 326.48
  C 263.84 327.98 261.32 329.51 257.88 330.74
  Q 245.15 335.31 239.31 337.37
  C 228.05 341.35 218.06 346.24 210.26 355.32
  Q 203.19 363.56 196.26 377.88
  A 1.70 1.57 61.1 0 0 196.09 378.57
  L 195.87 385.30
  L 195.64 368.67
  L 195.74 327.36
  C 207.18 316.97 219.65 309.00 234.20 306.86
  Q 242.43 305.65 250.65 304.43
  C 259.22 303.15 264.57 298.14 269.10 290.97
  Z"
/>
<path fill="#0075f6" d="
  M 397.39 295.44
  L 397.52 305.96
  L 396.80 311.01
  A 0.55 0.54 -85.2 0 1 396.25 311.48
  L 343.61 310.93
  L 343.55 298.79
  Q 363.56 296.75 383.42 299.53
  Q 390.03 300.45 396.67 301.51
  A 0.41 0.41 0.0 0 0 397.15 301.12
  L 397.39 295.44
  Z"
/>
<path fill="#006af1" d="
  M 475.97 314.49
  L 475.99 326.51
  Q 468.73 325.39 450.64 322.90
  Q 435.28 320.78 421.92 328.14
  L 422.33 308.43
  A 0.55 0.54 88.9 0 1 422.84 307.89
  C 441.26 306.61 458.00 309.81 475.97 314.49
  Z"
/>
<path fill="#006af1" d="
  M 318.73 333.29
  Q 305.03 330.08 290.75 332.75
  Q 295.10 329.25 299.11 325.80
  C 302.08 323.24 305.32 321.20 308.15 318.09
  A 4.88 4.28 -0.1 0 1 308.89 317.44
  Q 313.91 313.84 315.15 312.38
  Q 317.51 309.62 316.03 306.26
  L 317.84 304.49
  A 0.40 0.40 0.0 0 1 318.52 304.78
  L 318.73 333.29
  Z"
/>
<path fill="#24b8fc" d="
  M 195.70 310.95
  L 195.73 319.08
  L 195.74 327.36
  L 195.64 368.67
  Q 194.39 370.30 192.72 369.71
  L 192.73 304.53
  Q 192.63 309.99 195.01 314.55
  A 0.17 0.16 35.1 0 0 195.32 314.50
  L 195.70 310.95
  Z"
/>
<path fill="#24b8fc" d="
  M 421.61 321.15
  L 421.75 358.72
  L 421.71 359.43
  L 420.99 369.84
  A 0.39 0.39 0.0 0 1 420.32 370.09
  L 419.86 369.64
  A 2.02 1.99 -68.7 0 1 419.29 368.31
  L 419.11 361.79
  L 418.98 305.54
  Q 419.32 313.51 419.25 321.50
  Q 419.24 322.47 420.07 324.05
  A 0.28 0.28 0.0 0 0 420.58 324.02
  L 421.61 321.15
  Z"
/>
<path fill="#006af1" d="
  M 397.52 305.96
  L 397.61 322.21
  Q 397.38 322.25 397.15 322.29
  Q 387.90 322.74 384.39 322.64
  Q 363.97 322.10 343.53 322.21
  L 343.61 310.93
  L 396.25 311.48
  A 0.55 0.54 -85.2 0 0 396.80 311.01
  L 397.52 305.96
  Z"
/>
<path fill="#2ec1fc" d="
  M 316.03 306.26
  Q 317.51 309.62 315.15 312.38
  Q 313.91 313.84 308.89 317.44
  A 4.88 4.28 -0.1 0 0 308.15 318.09
  C 305.32 321.20 302.08 323.24 299.11 325.80
  Q 295.10 329.25 290.75 332.75
  Q 285.74 338.07 274.84 346.11
  Q 272.57 347.78 266.89 353.91
  Q 264.20 355.53 261.59 353.52
  L 316.03 306.26
  Z"
/>
<path fill="#004aaf" d="
  M 268.96 310.94
  L 269.13 325.10
  A 3.08 3.07 -19.0 0 1 267.91 327.59
  C 263.97 330.57 260.14 333.81 255.39 338.55
  Q 250.96 342.99 246.29 346.41
  Q 244.85 347.46 245.12 350.26
  Q 245.42 353.37 245.40 367.25
  Q 245.38 377.02 245.36 426.01
  A 2.21 2.20 -22.2 0 1 244.69 427.59
  L 194.17 476.61
  Q 193.87 474.37 195.04 472.32
  A 2.63 2.56 -30.9 0 0 195.38 471.04
  L 195.38 464.39
  A 1.34 0.81 64.9 0 1 195.41 464.11
  Q 196.68 457.93 196.15 452.06
  Q 195.69 446.88 195.81 442.92
  Q 196.40 423.85 195.62 403.00
  Q 195.43 397.87 195.87 385.30
  L 196.09 378.57
  A 1.70 1.57 61.1 0 1 196.26 377.88
  Q 203.19 363.56 210.26 355.32
  C 218.06 346.24 228.05 341.35 239.31 337.37
  Q 245.15 335.31 257.88 330.74
  C 261.32 329.51 263.84 327.98 267.02 326.48
  A 0.89 0.88 80.8 0 0 267.53 325.76
  L 268.96 310.94
  Z"
/>
<path fill="#16acfd" d="
  M 343.48 323.02
  L 343.54 336.06
  L 343.43 370.26
  Q 343.61 370.14 343.50 370.66
  L 340.79 373.79
  A 0.23 0.23 0.0 0 1 340.39 373.66
  L 340.08 371.28
  L 340.09 318.29
  L 340.35 322.77
  A 0.65 0.65 0.0 0 0 340.88 323.37
  Q 342.15 323.61 343.48 323.02
  Z"
/>
<path fill="#0060e9" d="
  M 475.99 326.51
  L 475.93 350.70
  L 475.57 352.57
  A 0.48 0.47 -77.2 0 1 474.99 352.94
  C 456.73 348.46 440.38 346.11 422.94 350.97
  A 1.20 1.18 82.4 0 0 422.07 352.12
  L 422.04 387.79
  Q 421.95 387.79 421.85 387.78
  L 421.71 359.43
  L 421.75 358.72
  L 421.92 328.14
  Q 435.28 320.78 450.64 322.90
  Q 468.73 325.39 475.99 326.51
  Z"
/>
<path fill="#0060e9" d="
  M 397.15 322.29
  L 396.92 330.97
  A 0.68 0.67 -6.8 0 1 396.41 331.61
  C 385.75 334.47 376.51 334.66 365.02 334.57
  Q 357.51 334.51 343.54 336.06
  L 343.48 323.02
  L 343.53 322.21
  Q 363.97 322.10 384.39 322.64
  Q 387.90 322.74 397.15 322.29
  Z"
/>
<path fill="#004fd6" d="
  M 397.61 322.21
  L 397.40 350.68
  L 396.78 366.22
  A 0.79 0.77 -10.0 0 1 396.29 366.91
  Q 385.18 371.35 373.15 370.96
  Q 358.45 370.48 343.43 370.26
  L 343.54 336.06
  Q 357.51 334.51 365.02 334.57
  C 376.51 334.66 385.75 334.47 396.41 331.61
  A 0.68 0.67 -6.8 0 0 396.92 330.97
  L 397.15 322.29
  Q 397.38 322.25 397.61 322.21
  Z"
/>
<path fill="#0082fa" d="
  M 120.66 323.94
  Q 121.78 328.01 120.28 332.73
  C 115.33 334.49 111.06 337.37 105.66 340.83
  Q 104.33 341.68 100.42 342.65
  Q 101.63 334.25 109.70 329.87
  Q 115.17 326.91 120.66 323.94
  Z"
/>
<path fill="#1de6fe" d="
  M 92.33 325.86
  Q 91.97 332.48 94.68 337.60
  Q 95.05 338.30 93.16 338.27
  Q 89.78 334.94 89.07 330.04
  L 91.11 334.19
  A 0.01 0.01 0.0 0 0 91.13 334.19
  C 91.16 333.35 91.49 332.64 92.04 331.88
  A 1.35 1.35 0.0 0 0 92.31 331.07
  L 92.33 325.86
  Z"
/>
<path fill="#0060e9" d="
  M 318.73 333.29
  L 318.61 348.49
  Q 304.61 351.05 290.45 353.18
  Q 277.09 355.19 265.59 362.13
  A 1.09 1.07 -11.2 0 0 265.08 362.88
  L 264.51 366.29
  C 264.40 361.38 264.23 357.63 266.89 353.91
  Q 272.57 347.78 274.84 346.11
  Q 285.74 338.07 290.75 332.75
  Q 305.03 330.08 318.73 333.29
  Z"
/>
<path fill="#004fd6" d="
  M 120.28 332.73
  Q 114.46 346.49 99.52 342.86
  Q 99.86 342.65 100.42 342.65
  Q 104.33 341.68 105.66 340.83
  C 111.06 337.37 115.33 334.49 120.28 332.73
  Z"
/>
<path fill="#004fd6" d="
  M 475.93 350.70
  L 475.88 368.46
  Q 465.37 369.54 462.69 369.60
  C 449.34 369.93 436.95 369.67 422.85 371.80
  A 0.60 0.59 -4.1 0 0 422.35 372.37
  L 422.04 387.79
  L 422.07 352.12
  A 1.20 1.18 82.4 0 1 422.94 350.97
  C 440.38 346.11 456.73 348.46 474.99 352.94
  A 0.48 0.47 -77.2 0 0 475.57 352.57
  L 475.93 350.70
  Z"
/>
<path fill="#004fd6" d="
  M 318.61 348.49
  L 318.53 365.92
  Q 305.73 369.91 292.41 370.61
  Q 273.48 371.60 265.34 371.95
  A 0.56 0.56 0.0 0 0 264.81 372.50
  L 264.45 398.71
  L 264.26 435.82
  L 263.93 450.21
  Q 263.78 450.84 263.73 450.91
  A 0.86 0.84 62.4 0 1 262.25 450.43
  L 261.85 447.29
  L 261.73 383.03
  L 262.34 390.74
  A 1.81 1.77 -70.4 0 0 262.87 391.89
  L 263.32 392.34
  A 0.38 0.38 0.0 0 0 263.97 392.08
  L 264.51 366.29
  L 265.08 362.88
  A 1.09 1.07 -11.2 0 1 265.59 362.13
  Q 277.09 355.19 290.45 353.18
  Q 304.61 351.05 318.61 348.49
  Z"
/>
<path fill="#0141be" d="
  M 397.40 350.68
  L 397.58 374.95
  L 397.00 384.97
  A 0.83 0.82 77.0 0 1 396.59 385.63
  Q 386.74 391.16 378.07 392.11
  C 368.35 393.18 356.38 392.94 343.49 393.71
  L 343.50 370.66
  Q 343.61 370.14 343.43 370.26
  Q 358.45 370.48 373.15 370.96
  Q 385.18 371.35 396.29 366.91
  A 0.79 0.77 -10.0 0 0 396.78 366.22
  L 397.40 350.68
  Z"
/>
<path fill="#0997f9" d="
  M 261.59 353.52
  Q 264.20 355.53 266.89 353.91
  C 264.23 357.63 264.40 361.38 264.51 366.29
  L 263.97 392.08
  A 0.38 0.38 0.0 0 1 263.32 392.34
  L 262.87 391.89
  A 1.81 1.77 -70.4 0 1 262.34 390.74
  L 261.73 383.03
  L 261.59 353.52
  Z"
/>
<path fill="#006af1" d="
  M 421.71 359.43
  L 421.85 387.78
  L 421.88 407.28
  L 420.79 411.68
  A 0.30 0.30 0.0 0 1 420.22 411.73
  Q 419.47 410.02 419.43 408.00
  Q 419.32 400.39 419.00 392.79
  L 419.11 361.79
  L 419.29 368.31
  A 2.02 1.99 -68.7 0 0 419.86 369.64
  L 420.32 370.09
  A 0.39 0.39 0.0 0 0 420.99 369.84
  L 421.71 359.43
  Z"
/>
<path fill="#0141be" d="
  M 318.53 365.92
  L 318.45 389.96
  L 318.05 393.07
  A 0.55 0.54 -85.4 0 1 317.49 393.55
  Q 291.28 392.65 265.13 394.59
  A 0.54 0.54 0.0 0 0 264.62 395.11
  L 264.45 398.71
  L 264.81 372.50
  A 0.56 0.56 0.0 0 1 265.34 371.95
  Q 273.48 371.60 292.41 370.61
  Q 305.73 369.91 318.53 365.92
  Z"
/>
<path fill="#0141be" d="
  M 475.88 368.46
  L 475.79 382.91
  C 462.83 386.19 454.40 386.07 437.98 386.52
  Q 433.31 386.64 422.88 388.07
  A 0.59 0.59 0.0 0 0 422.37 388.63
  L 421.88 407.28
  L 421.85 387.78
  Q 421.95 387.79 422.04 387.79
  L 422.35 372.37
  A 0.60 0.59 -4.1 0 1 422.85 371.80
  C 436.95 369.67 449.34 369.93 462.69 369.60
  Q 465.37 369.54 475.88 368.46
  Z"
/>
<path fill="#048bf5" d="
  M 195.64 368.67
  L 195.87 385.30
  Q 195.43 397.87 195.62 403.00
  Q 196.40 423.85 195.81 442.92
  Q 195.69 446.88 196.15 452.06
  Q 196.68 457.93 195.41 464.11
  A 1.34 0.81 64.9 0 0 195.38 464.39
  L 195.38 471.04
  A 2.63 2.56 -30.9 0 1 195.04 472.32
  Q 193.87 474.37 194.17 476.61
  Q 193.73 477.21 193.32 477.42
  A 0.40 0.40 0.0 0 1 192.74 477.06
  L 192.72 369.71
  Q 194.39 370.30 195.64 368.67
  Z"
/>
<path fill="#006af1" d="
  M 343.50 370.66
  L 343.49 393.71
  L 343.50 396.75
  Q 342.28 397.96 340.84 398.20
  A 0.47 0.47 0.0 0 1 340.30 397.76
  L 340.11 393.28
  L 340.08 371.28
  L 340.39 373.66
  A 0.23 0.23 0.0 0 0 340.79 373.79
  L 343.50 370.66
  Z"
/>
<path fill="#01339c" d="
  M 397.58 374.95
  L 397.64 400.53
  L 396.31 415.31
  A 1.28 1.28 0.0 0 1 395.90 416.15
  Q 384.87 426.03 370.68 427.10
  Q 358.89 428.00 343.51 426.97
  L 343.50 396.75
  L 343.49 393.71
  C 356.38 392.94 368.35 393.18 378.07 392.11
  Q 386.74 391.16 396.59 385.63
  A 0.83 0.82 77.0 0 0 397.00 384.97
  L 397.58 374.95
  Z"
/>
<path fill="#004aaf" d="
  M 475.79 382.91
  L 475.90 389.21
  L 475.70 390.74
  A 0.76 0.73 -5.0 0 1 475.16 391.36
  Q 463.80 394.75 457.31 395.43
  C 440.14 397.22 434.37 397.67 422.90 399.76
  A 0.64 0.63 85.7 0 0 422.38 400.38
  L 422.08 428.05
  Q 421.16 437.86 421.97 447.70
  L 420.64 455.79
  A 0.52 0.51 -43.2 0 1 419.62 455.76
  L 419.05 449.54
  L 419.00 392.79
  Q 419.32 400.39 419.43 408.00
  Q 419.47 410.02 420.22 411.73
  A 0.30 0.30 0.0 0 0 420.79 411.68
  L 421.88 407.28
  L 422.37 388.63
  A 0.59 0.59 0.0 0 1 422.88 388.07
  Q 433.31 386.64 437.98 386.52
  C 454.40 386.07 462.83 386.19 475.79 382.91
  Z"
/>
<path fill="#01339c" d="
  M 475.90 389.21
  L 475.79 418.24
  Q 471.12 418.17 454.48 418.34
  Q 437.57 418.53 423.03 423.85
  A 0.81 0.80 83.4 0 0 422.51 424.51
  L 422.08 428.05
  L 422.38 400.38
  A 0.64 0.63 85.7 0 1 422.90 399.76
  C 434.37 397.67 440.14 397.22 457.31 395.43
  Q 463.80 394.75 475.16 391.36
  A 0.76 0.73 -5.0 0 0 475.70 390.74
  L 475.90 389.21
  Z"
/>
<path fill="#01339c" d="
  M 318.45 389.96
  L 318.34 430.61
  Q 291.59 428.82 265.37 431.94
  A 0.67 0.66 1.1 0 0 264.79 432.49
  L 264.26 435.82
  L 264.45 398.71
  L 264.62 395.11
  A 0.54 0.54 0.0 0 1 265.13 394.59
  Q 291.28 392.65 317.49 393.55
  A 0.55 0.54 -85.4 0 0 318.05 393.07
  L 318.45 389.96
  Z"
/>
<path fill="#0141be" d="
  M 343.50 396.75
  L 343.51 426.97
  L 343.39 450.78
  L 343.22 454.68
  Q 341.76 455.36 340.24 455.21
  L 340.11 393.28
  L 340.30 397.76
  A 0.47 0.47 0.0 0 0 340.84 398.20
  Q 342.28 397.96 343.50 396.75
  Z"
/>
<path fill="#01287d" d="
  M 397.45 451.29
  L 396.99 447.72
  A 0.48 0.47 -8.5 0 0 396.43 447.31
  C 378.23 450.66 361.22 450.41 343.39 450.78
  L 343.51 426.97
  Q 358.89 428.00 370.68 427.10
  Q 384.87 426.03 395.90 416.15
  A 1.28 1.28 0.0 0 0 396.31 415.31
  L 397.64 400.53
  L 397.45 451.29
  Z"
/>
<path fill="#01287d" d="
  M 475.79 418.24
  L 475.71 428.46
  L 475.38 436.62
  A 0.75 0.74 -8.8 0 1 474.88 437.29
  C 464.00 440.95 457.02 442.22 442.77 444.95
  Q 434.09 446.61 423.32 451.37
  A 0.83 0.82 -8.6 0 0 422.84 452.01
  L 421.56 462.19
  L 421.97 447.70
  Q 421.16 437.86 422.08 428.05
  L 422.51 424.51
  A 0.81 0.80 83.4 0 1 423.03 423.85
  Q 437.57 418.53 454.48 418.34
  Q 471.12 418.17 475.79 418.24
  Z"
/>
<path fill="#01287d" d="
  M 318.34 430.61
  L 318.24 444.00
  L 265.24 446.48
  A 0.54 0.53 -90.0 0 0 264.73 447.00
  L 264.36 461.04
  L 263.93 450.21
  L 264.26 435.82
  L 264.79 432.49
  A 0.67 0.66 1.1 0 1 265.37 431.94
  Q 291.59 428.82 318.34 430.61
  Z"
/>
<path fill="#011f61" d="
  M 475.71 428.46
  L 475.30 475.99
  A 0.67 0.67 0.0 0 1 474.62 476.66
  Q 459.68 476.45 459.05 476.43
  Q 455.41 476.26 443.47 476.89
  Q 434.83 477.35 424.59 476.86
  Q 422.23 476.75 420.43 477.24
  Q 422.97 471.24 421.56 462.19
  L 422.84 452.01
  A 0.83 0.82 -8.6 0 1 423.32 451.37
  Q 434.09 446.61 442.77 444.95
  C 457.02 442.22 464.00 440.95 474.88 437.29
  A 0.75 0.74 -8.8 0 0 475.38 436.62
  L 475.71 428.46
  Z"
/>
<path fill="#011f61" d="
  M 318.24 444.00
  L 317.94 476.70
  A 0.51 0.50 -87.8 0 1 317.41 477.20
  Q 295.58 475.93 273.66 477.21
  Q 272.83 477.26 269.36 477.59
  Q 265.10 478.00 261.70 477.08
  L 263.43 475.00
  A 3.79 3.73 71.1 0 0 264.19 473.41
  C 265.03 469.47 264.50 465.07 264.36 461.04
  L 264.73 447.00
  A 0.54 0.53 -90.0 0 1 265.24 446.48
  L 318.24 444.00
  Z"
/>
<path fill="#011f61" d="
  M 397.45 451.29
  Q 397.04 460.70 397.46 472.50
  Q 397.52 474.43 396.80 476.69
  A 0.70 0.70 0.0 0 1 396.12 477.17
  Q 375.96 476.74 353.25 476.97
  Q 346.85 477.03 341.25 477.50
  A 1.13 1.08 -32.1 0 1 340.67 477.38
  Q 339.77 476.90 340.11 475.95
  Q 342.98 477.39 343.36 471.75
  Q 343.70 466.58 343.22 454.68
  L 343.39 450.78
  C 361.22 450.41 378.23 450.66 396.43 447.31
  A 0.48 0.47 -8.5 0 1 396.99 447.72
  L 397.45 451.29
  Z"
/>
<path fill="#01339c" d="
  M 263.93 450.21
  L 264.36 461.04
  C 264.50 465.07 265.03 469.47 264.19 473.41
  A 3.79 3.73 71.1 0 1 263.43 475.00
  L 261.70 477.08
  L 261.85 447.29
  L 262.25 450.43
  A 0.86 0.84 62.4 0 0 263.73 450.91
  Q 263.78 450.84 263.93 450.21
  Z"
/>
<path fill="#01339c" d="
  M 421.97 447.70
  L 421.56 462.19
  Q 422.97 471.24 420.43 477.24
  Q 418.99 477.60 418.99 477.12
  Q 419.02 463.33 419.05 449.54
  L 419.62 455.76
  A 0.52 0.51 -43.2 0 0 420.64 455.79
  L 421.97 447.70
  Z"
/>
<path fill="#01339c" d="
  M 343.22 454.68
  Q 343.70 466.58 343.36 471.75
  Q 342.98 477.39 340.11 475.95
  L 340.24 455.21
  Q 341.76 455.36 343.22 454.68
  Z"
/>
</svg>
