<?xml version="1.0" encoding="UTF-8" standalone="no"?>
<!DOCTYPE svg PUBLIC "-//W3C//DTD SVG 1.1//EN" "http://www.w3.org/Graphics/SVG/1.1/DTD/svg11.dtd">
<svg xmlns="http://www.w3.org/2000/svg" version="1.1" viewBox="0.00 0.00 413.00 413.00">
<g stroke-width="2.00" fill="none" stroke-linecap="butt">
<path stroke="#0c6183" vector-effect="non-scaling-stroke" d="
  M 362.8863 64.6165
  A 33.13 32.99 -82.2 0 0 325.7052 92.9627
  A 33.13 32.99 -82.2 0 0 353.8937 130.2635
  A 33.13 32.99 -82.2 0 0 391.0748 101.9173
  A 33.13 32.99 -82.2 0 0 362.8863 64.6165"
/>
<path stroke="#422483" vector-effect="non-scaling-stroke" d="
  M 79.49 211.03
  L 113.37 267.17"
/>
<path stroke="#2f1a83" vector-effect="non-scaling-stroke" d="
  M 113.37 267.17
  C 118.23 274.99 122.95 283.74 127.51 290.74
  C 132.74 298.78 137.34 307.78 142.53 315.90
  Q 148.60 325.41 149.71 327.56
  Q 156.70 341.04 168.36 352.18
  Q 177.00 360.44 188.03 365.71
  Q 199.14 371.03 210.97 372.13
  Q 225.19 373.46 238.97 369.73
  Q 242.02 368.90 244.84 367.48"
/>
<path stroke="#2b2484" vector-effect="non-scaling-stroke" d="
  M 244.84 367.48
  Q 258.68 362.18 267.40 353.66
  C 274.83 346.41 280.02 340.78 284.94 331.94
  C 289.59 323.61 293.85 317.25 298.00 309.79
  C 300.47 305.34 303.09 301.27 305.57 296.97"
/>
<path stroke="#133182" vector-effect="non-scaling-stroke" d="
  M 305.57 296.97
  L 306.60 295.08"
/>
<path stroke="#133e83" vector-effect="non-scaling-stroke" d="
  M 306.60 295.08
  L 331.50 253.25"
/>
<path stroke="#114983" vector-effect="non-scaling-stroke" d="
  M 331.50 253.25
  L 344.00 232.27"
/>
<path stroke="#0e5183" vector-effect="non-scaling-stroke" d="
  M 344.00 232.27
  Q 348.36 224.79 352.80 217.36
  Q 358.18 208.37 359.71 203.36
  Q 364.59 187.38 358.20 171.87
  Q 349.26 150.19 325.19 144.77
  C 311.82 141.76 296.24 146.24 285.90 155.21"
/>
<path stroke="#114983" vector-effect="non-scaling-stroke" d="
  M 285.90 155.21
  Q 278.79 160.86 274.75 168.14"
/>
<path stroke="#133e83" vector-effect="non-scaling-stroke" d="
  M 274.75 168.14
  L 246.85 215.12"
/>
<path stroke="#133182" vector-effect="non-scaling-stroke" d="
  M 246.85 215.12
  L 233.60 237.70"
/>
<path stroke="#0f227a" vector-effect="non-scaling-stroke" d="
  M 233.60 237.70
  Q 226.75 250.64 218.66 262.87"
/>
<path stroke="#2b2484" vector-effect="non-scaling-stroke" d="
  M 218.66 262.87
  L 211.21 251.22"
/>
<path stroke="#2f1a83" vector-effect="non-scaling-stroke" d="
  M 211.21 251.22
  L 192.28 219.48"
/>
<path stroke="#422483" vector-effect="non-scaling-stroke" d="
  M 192.28 219.48
  L 135.32 123.44"
/>
<path stroke="#502383" vector-effect="non-scaling-stroke" d="
  M 135.32 123.44
  C 130.40 114.64 124.98 106.15 120.01 97.38
  C 107.59 75.46 80.58 63.48 56.58 74.05
  Q 48.54 77.59 41.38 85.02
  C 38.66 87.84 35.75 92.65 33.93 95.66
  Q 32.22 98.50 31.18 102.71
  Q 27.76 116.65 31.74 129.61
  Q 33.42 135.08 40.94 147.37
  Q 60.37 179.12 79.49 211.03"
/>
<path stroke="#9143fc" vector-effect="non-scaling-stroke" d="
  M 135.32 123.44
  Q 127.87 135.89 123.60 140.79
  Q 117.55 147.72 111.32 154.54
  Q 104.98 161.48 102.73 169.65
  C 100.48 177.82 99.18 187.60 96.15 196.23
  C 93.28 204.38 87.46 207.99 79.49 211.03"
/>
<path stroke="#703afc" vector-effect="non-scaling-stroke" d="
  M 192.28 219.48
  C 182.45 222.90 172.10 227.72 166.15 234.61
  C 158.93 242.97 153.92 249.06 145.70 254.87
  C 133.83 263.26 126.63 270.74 113.37 267.17"
/>
<path stroke="#583bfd" vector-effect="non-scaling-stroke" d="
  M 211.21 251.22
  C 205.44 256.24 202.04 261.11 202.38 269.20
  C 202.58 274.21 204.82 282.62 203.99 288.96
  C 203.57 292.12 202.44 296.02 202.80 299.31
  Q 203.49 305.50 206.49 311.06
  Q 222.78 341.18 244.84 367.48"
/>
<path stroke="#3943f5" vector-effect="non-scaling-stroke" d="
  M 282.78 309.77
  Q 272.00 312.17 265.06 311.26
  Q 260.87 310.71 252.84 307.15
  A 6.04 5.44 72.0 0 1 251.92 306.62
  C 247.11 303.18 241.91 299.70 237.52 294.92
  Q 235.37 292.58 232.67 287.51
  Q 228.39 279.47 222.57 270.69
  Q 220.17 267.06 218.66 262.87"
/>
<path stroke="#3d52fd" vector-effect="non-scaling-stroke" d="
  M 305.57 296.97
  Q 301.29 297.97 299.64 301.48
  C 298.63 303.64 293.31 305.18 291.13 305.90
  C 288.64 306.73 285.73 308.73 282.78 309.77"
/>
<path stroke="#214ff3" vector-effect="non-scaling-stroke" d="
  M 282.78 309.77
  Q 253.73 276.79 233.60 237.70"
/>
<path stroke="#256cfc" vector-effect="non-scaling-stroke" d="
  M 306.60 295.08
  Q 293.86 285.69 284.14 271.68
  Q 263.98 242.62 254.53 227.79
  Q 250.63 221.68 246.85 215.12"
/>
<path stroke="#2284fd" vector-effect="non-scaling-stroke" d="
  M 331.50 253.25
  C 309.48 226.23 290.03 199.33 274.75 168.14"
/>
<path stroke="#1d97fd" vector-effect="non-scaling-stroke" d="
  M 344.00 232.27
  Q 329.51 217.62 317.73 201.06
  C 307.81 187.12 297.95 170.04 285.90 155.21"
/>
</g>
<path fill="#010309" d="
  M 413.00 0.00
  L 413.00 413.00
  L 0.00 413.00
  L 0.00 0.00
  L 413.00 0.00
  Z
  M 362.8863 64.6165
  A 33.13 32.99 -82.2 0 0 325.7052 92.9627
  A 33.13 32.99 -82.2 0 0 353.8937 130.2635
  A 33.13 32.99 -82.2 0 0 391.0748 101.9173
  A 33.13 32.99 -82.2 0 0 362.8863 64.6165
  Z
  M 79.49 211.03
  L 113.37 267.17
  C 118.23 274.99 122.95 283.74 127.51 290.74
  C 132.74 298.78 137.34 307.78 142.53 315.90
  Q 148.60 325.41 149.71 327.56
  Q 156.70 341.04 168.36 352.18
  Q 177.00 360.44 188.03 365.71
  Q 199.14 371.03 210.97 372.13
  Q 225.19 373.46 238.97 369.73
  Q 242.02 368.90 244.84 367.48
  Q 258.68 362.18 267.40 353.66
  C 274.83 346.41 280.02 340.78 284.94 331.94
  C 289.59 323.61 293.85 317.25 298.00 309.79
  C 300.47 305.34 303.09 301.27 305.57 296.97
  L 306.60 295.08
  L 331.50 253.25
  L 344.00 232.27
  Q 348.36 224.79 352.80 217.36
  Q 358.18 208.37 359.71 203.36
  Q 364.59 187.38 358.20 171.87
  Q 349.26 150.19 325.19 144.77
  C 311.82 141.76 296.24 146.24 285.90 155.21
  Q 278.79 160.86 274.75 168.14
  L 246.85 215.12
  L 233.60 237.70
  Q 226.75 250.64 218.66 262.87
  L 211.21 251.22
  L 192.28 219.48
  L 135.32 123.44
  C 130.40 114.64 124.98 106.15 120.01 97.38
  C 107.59 75.46 80.58 63.48 56.58 74.05
  Q 48.54 77.59 41.38 85.02
  C 38.66 87.84 35.75 92.65 33.93 95.66
  Q 32.22 98.50 31.18 102.71
  Q 27.76 116.65 31.74 129.61
  Q 33.42 135.08 40.94 147.37
  Q 60.37 179.12 79.49 211.03
  Z"
/>
<ellipse fill="#16bffd" cx="0.00" cy="0.00" transform="translate(358.39,97.44) rotate(-82.2)" rx="33.13" ry="32.99"/>
<path fill="#9f42fc" d="
  M 135.32 123.44
  Q 127.87 135.89 123.60 140.79
  Q 117.55 147.72 111.32 154.54
  Q 104.98 161.48 102.73 169.65
  C 100.48 177.82 99.18 187.60 96.15 196.23
  C 93.28 204.38 87.46 207.99 79.49 211.03
  Q 60.37 179.12 40.94 147.37
  Q 33.42 135.08 31.74 129.61
  Q 27.76 116.65 31.18 102.71
  Q 32.22 98.50 33.93 95.66
  C 35.75 92.65 38.66 87.84 41.38 85.02
  Q 48.54 77.59 56.58 74.05
  C 80.58 63.48 107.59 75.46 120.01 97.38
  C 124.98 106.15 130.40 114.64 135.32 123.44
  Z"
/>
<path fill="#8344fc" d="
  M 135.32 123.44
  L 192.28 219.48
  C 182.45 222.90 172.10 227.72 166.15 234.61
  C 158.93 242.97 153.92 249.06 145.70 254.87
  C 133.83 263.26 126.63 270.74 113.37 267.17
  L 79.49 211.03
  C 87.46 207.99 93.28 204.38 96.15 196.23
  C 99.18 187.60 100.48 177.82 102.73 169.65
  Q 104.98 161.48 111.32 154.54
  Q 117.55 147.72 123.60 140.79
  Q 127.87 135.89 135.32 123.44
  Z"
/>
<path fill="#1a9efd" d="
  M 344.00 232.27
  Q 329.51 217.62 317.73 201.06
  C 307.81 187.12 297.95 170.04 285.90 155.21
  C 296.24 146.24 311.82 141.76 325.19 144.77
  Q 349.26 150.19 358.20 171.87
  Q 364.59 187.38 359.71 203.36
  Q 358.18 208.37 352.80 217.36
  Q 348.36 224.79 344.00 232.27
  Z"
/>
<path fill="#208ffd" d="
  M 285.90 155.21
  C 297.95 170.04 307.81 187.12 317.73 201.06
  Q 329.51 217.62 344.00 232.27
  L 331.50 253.25
  C 309.48 226.23 290.03 199.33 274.75 168.14
  Q 278.79 160.86 285.90 155.21
  Z"
/>
<path fill="#2479fd" d="
  M 274.75 168.14
  C 290.03 199.33 309.48 226.23 331.50 253.25
  L 306.60 295.08
  Q 293.86 285.69 284.14 271.68
  Q 263.98 242.62 254.53 227.79
  Q 250.63 221.68 246.85 215.12
  L 274.75 168.14
  Z"
/>
<path fill="#255efb" d="
  M 246.85 215.12
  Q 250.63 221.68 254.53 227.79
  Q 263.98 242.62 284.14 271.68
  Q 293.86 285.69 306.60 295.08
  L 305.57 296.97
  Q 301.29 297.97 299.64 301.48
  C 298.63 303.64 293.31 305.18 291.13 305.90
  C 288.64 306.73 285.73 308.73 282.78 309.77
  Q 253.73 276.79 233.60 237.70
  L 246.85 215.12
  Z"
/>
<path fill="#5c30fc" d="
  M 192.28 219.48
  L 211.21 251.22
  C 205.44 256.24 202.04 261.11 202.38 269.20
  C 202.58 274.21 204.82 282.62 203.99 288.96
  C 203.57 292.12 202.44 296.02 202.80 299.31
  Q 203.49 305.50 206.49 311.06
  Q 222.78 341.18 244.84 367.48
  Q 242.02 368.90 238.97 369.73
  Q 225.19 373.46 210.97 372.13
  Q 199.14 371.03 188.03 365.71
  Q 177.00 360.44 168.36 352.18
  Q 156.70 341.04 149.71 327.56
  Q 148.60 325.41 142.53 315.90
  C 137.34 307.78 132.74 298.78 127.51 290.74
  C 122.95 283.74 118.23 274.99 113.37 267.17
  C 126.63 270.74 133.83 263.26 145.70 254.87
  C 153.92 249.06 158.93 242.97 166.15 234.61
  C 172.10 227.72 182.45 222.90 192.28 219.48
  Z"
/>
<path fill="#1d40eb" d="
  M 233.60 237.70
  Q 253.73 276.79 282.78 309.77
  Q 272.00 312.17 265.06 311.26
  Q 260.87 310.71 252.84 307.15
  A 6.04 5.44 72.0 0 1 251.92 306.62
  C 247.11 303.18 241.91 299.70 237.52 294.92
  Q 235.37 292.58 232.67 287.51
  Q 228.39 279.47 222.57 270.69
  Q 220.17 267.06 218.66 262.87
  Q 226.75 250.64 233.60 237.70
  Z"
/>
<path fill="#5445fe" d="
  M 211.21 251.22
  L 218.66 262.87
  Q 220.17 267.06 222.57 270.69
  Q 228.39 279.47 232.67 287.51
  Q 235.37 292.58 237.52 294.92
  C 241.91 299.70 247.11 303.18 251.92 306.62
  A 6.04 5.44 72.0 0 0 252.84 307.15
  Q 260.87 310.71 265.06 311.26
  Q 272.00 312.17 282.78 309.77
  C 285.73 308.73 288.64 306.73 291.13 305.90
  C 293.31 305.18 298.63 303.64 299.64 301.48
  Q 301.29 297.97 305.57 296.97
  C 303.09 301.27 300.47 305.34 298.00 309.79
  C 293.85 317.25 289.59 323.61 284.94 331.94
  C 280.02 340.78 274.83 346.41 267.40 353.66
  Q 258.68 362.18 244.84 367.48
  Q 222.78 341.18 206.49 311.06
  Q 203.49 305.50 202.80 299.31
  C 202.44 296.02 203.57 292.12 203.99 288.96
  C 204.82 282.62 202.58 274.21 202.38 269.20
  C 202.04 261.11 205.44 256.24 211.21 251.22
  Z"
/>
</svg>
