<?xml version="1.0" encoding="UTF-8" standalone="no"?>
<!DOCTYPE svg PUBLIC "-//W3C//DTD SVG 1.1//EN" "http://www.w3.org/Graphics/SVG/1.1/DTD/svg11.dtd">
<svg xmlns="http://www.w3.org/2000/svg" version="1.1" viewBox="0.00 0.00 665.00 665.00">
<g stroke-width="2.00" fill="none" stroke-linecap="butt">
<path stroke="#7a613a" vector-effect="non-scaling-stroke" d="
  M 382.38 305.46
  L 363.08 345.25
  A 0.27 0.27 0.0 0 0 363.47 345.59
  Q 364.41 344.97 364.74 344.48
  Q 374.44 329.69 386.04 316.49"
/>
<path stroke="#7f6d4b" vector-effect="non-scaling-stroke" d="
  M 386.04 316.49
  Q 400.02 302.79 413.51 294.51
  Q 428.19 285.50 447.65 278.53
  Q 468.48 271.07 489.30 263.56
  Q 491.82 262.65 494.29 261.62"
/>
<path stroke="#81755a" vector-effect="non-scaling-stroke" d="
  M 494.29 261.62
  Q 523.50 251.00 552.65 240.16
  Q 570.38 233.57 585.23 223.94
  Q 612.21 206.45 627.58 176.57
  C 635.35 161.45 640.03 145.60 649.19 132.59
  A 0.41 0.41 0.0 0 0 648.59 132.03
  Q 626.21 150.31 600.19 163.20
  Q 582.93 171.74 561.10 179.60
  Q 483.64 207.52 477.75 209.64
  C 462.37 215.16 450.53 220.32 438.28 228.55
  C 421.69 239.69 408.98 254.72 399.36 272.37
  Q 390.46 288.71 382.38 305.46"
/>
<path stroke="#fadb9a" vector-effect="non-scaling-stroke" d="
  M 494.29 261.62
  Q 493.37 261.71 492.85 261.38
  A 0.45 0.44 48.1 0 1 492.89 260.60
  C 500.97 256.69 510.12 253.83 517.79 250.87
  Q 533.19 244.95 547.83 239.58
  Q 550.02 238.77 554.56 236.58
  A 3.00 2.90 -78.7 0 0 555.37 236.02
  C 560.12 231.45 562.83 227.35 559.45 220.98
  Q 557.41 217.13 555.58 214.58
  Q 547.06 202.77 536.24 191.30
  A 1.03 1.02 56.4 0 0 535.08 191.06
  C 530.40 193.10 525.41 194.06 520.96 196.13
  Q 519.64 196.74 514.17 198.40
  Q 511.61 199.17 507.41 200.78
  Q 492.67 206.43 482.30 209.58
  Q 479.27 210.50 472.50 213.59
  Q 470.48 214.51 462.60 217.30
  Q 458.78 218.65 452.32 222.14
  Q 452.27 222.16 445.04 226.09
  Q 441.14 228.21 437.23 231.57
  A 5.28 4.88 6.6 0 1 436.45 232.14
  C 432.10 234.72 427.89 238.34 421.96 244.17"
/>
<path stroke="#f5cf88" vector-effect="non-scaling-stroke" d="
  M 421.96 244.17
  Q 417.24 248.66 413.40 253.89
  C 408.41 260.71 403.65 267.16 400.18 274.96
  A 7.47 6.84 -17.7 0 1 399.47 276.20
  Q 397.19 279.34 396.41 280.89
  Q 391.02 291.64 385.19 303.19
  Q 384.30 304.96 383.29 306.18
  A 0.53 0.53 0.0 0 1 382.43 306.12
  Q 382.32 305.93 382.38 305.46"
/>
<path stroke="#f3c77a" vector-effect="non-scaling-stroke" d="
  M 386.04 316.49
  Q 391.45 308.23 400.67 301.40
  Q 418.03 288.53 434.92 281.66
  Q 447.99 276.35 453.91 274.39
  Q 453.95 274.38 456.81 272.79
  A 0.34 0.34 0.0 0 0 456.86 272.23
  L 421.96 244.17"
/>
<path stroke="#7f6d4b" vector-effect="non-scaling-stroke" d="
  M 74.28 221.27
  Q 90.23 237.90 101.88 254.62
  Q 114.05 272.06 135.20 304.78
  Q 185.81 383.05 236.42 461.30"
/>
<path stroke="#6c5330" vector-effect="non-scaling-stroke" d="
  M 236.42 461.30
  L 269.66 513.19
  A 0.81 0.81 0.0 0 0 271.04 513.16
  L 321.04 426.56
  A 1.37 1.37 0.0 0 0 321.02 425.17
  L 301.66 393.98"
/>
<path stroke="#7f6d4b" vector-effect="non-scaling-stroke" d="
  M 301.66 393.98
  Q 250.49 311.04 198.73 228.47
  Q 194.65 221.96 190.52 215.49
  Q 186.11 208.61 178.76 201.73"
/>
<path stroke="#81755a" vector-effect="non-scaling-stroke" d="
  M 178.76 201.73
  Q 164.58 187.98 145.51 188.01
  Q 108.84 188.05 25.75 188.10
  Q 25.46 188.10 25.38 188.42
  A 0.39 0.38 16.3 0 0 25.64 188.89
  Q 31.23 190.73 38.42 194.63
  Q 58.20 205.35 74.28 221.27"
/>
<path stroke="#fadb9a" vector-effect="non-scaling-stroke" d="
  M 178.76 201.73
  Q 175.19 202.67 171.61 198.43
  A 3.19 3.03 -1.5 0 0 170.99 197.87
  Q 164.64 193.38 156.66 191.22
  Q 151.13 189.72 142.38 189.86
  Q 124.70 190.15 89.00 189.90
  C 77.63 189.82 67.90 190.31 56.67 190.08
  Q 48.27 189.91 37.15 190.51
  A 0.48 0.48 0.0 0 0 36.92 191.40
  C 42.48 194.82 46.75 198.00 52.11 200.74
  Q 55.57 202.52 58.71 205.75
  C 61.87 209.00 65.60 211.60 69.23 214.27
  Q 71.72 216.10 74.28 221.27"
/>
<path stroke="#e5b970" vector-effect="non-scaling-stroke" d="
  M 301.66 393.98
  L 300.34 394.98"
/>
<path stroke="#dcb16b" vector-effect="non-scaling-stroke" d="
  M 300.34 394.98
  L 290.03 377.98"
/>
<path stroke="#e5b970" vector-effect="non-scaling-stroke" d="
  M 290.03 377.98
  Q 287.98 374.58 285.75 371.30
  Q 283.41 367.86 281.59 364.56
  Q 276.92 356.08 272.34 349.65
  Q 267.18 342.39 264.03 336.01"
/>
<path stroke="#f3c77a" vector-effect="non-scaling-stroke" d="
  M 264.03 336.01
  Q 260.03 329.97 256.18 324.06
  Q 253.19 319.45 249.78 313.13
  Q 246.38 306.83 242.27 301.80
  A 5.89 5.37 -81.0 0 1 241.61 300.80
  Q 236.74 291.41 231.27 284.22
  C 228.65 280.77 226.82 277.12 225.05 273.18
  A 4.31 4.27 7.2 0 0 223.74 271.51
  C 205.72 257.51 177.30 245.24 154.69 253.89
  C 141.74 258.85 131.16 269.36 121.92 280.07
  A 0.75 0.75 0.0 0 0 121.83 280.91
  Q 124.40 285.67 128.30 290.48
  Q 129.34 291.76 129.92 292.79
  Q 130.14 293.18 131.38 295.22
  Q 141.02 311.07 148.56 321.92
  C 151.66 326.40 153.81 330.85 156.72 335.00
  C 160.72 340.72 165.10 347.53 167.57 351.34
  Q 170.20 355.37 173.02 360.00
  Q 184.94 379.56 197.83 398.85"
/>
<path stroke="#e5b970" vector-effect="non-scaling-stroke" d="
  M 197.83 398.85
  L 218.21 430.90"
/>
<path stroke="#dcb16b" vector-effect="non-scaling-stroke" d="
  M 218.21 430.90
  L 239.49 463.72"
/>
<path stroke="#e5b970" vector-effect="non-scaling-stroke" d="
  M 239.49 463.72
  L 236.42 461.30"
/>
<path stroke="#c99750" vector-effect="non-scaling-stroke" d="
  M 300.34 394.98
  L 318.48 424.14
  A 3.07 3.04 -46.3 0 1 318.54 427.25
  L 312.71 437.57"
/>
<path stroke="#b48546" vector-effect="non-scaling-stroke" d="
  M 312.71 437.57
  Q 305.14 432.23 301.27 430.70
  Q 284.10 423.92 270.72 434.12
  C 255.02 446.08 253.11 468.51 254.58 486.63"
/>
<path stroke="#c99750" vector-effect="non-scaling-stroke" d="
  M 254.58 486.63
  L 239.49 463.72"
/>
<path stroke="#c99750" vector-effect="non-scaling-stroke" d="
  M 290.03 377.98
  C 277.73 372.79 263.14 367.96 249.72 371.95
  C 233.76 376.69 226.95 389.73 223.31 405.45
  Q 220.41 417.96 218.21 430.90"
/>
<path stroke="#bd8d4b" vector-effect="non-scaling-stroke" d="
  M 254.58 486.63
  Q 256.99 491.53 260.76 495.91
  Q 260.81 495.98 260.86 496.05
  L 269.56 510.26
  A 0.68 0.67 -38.4 0 0 270.62 510.38
  Q 271.88 509.10 272.74 506.77
  A 4.38 3.92 -21.3 0 1 273.12 506.02
  Q 276.29 501.14 277.83 497.83
  C 279.28 494.72 281.71 492.13 283.24 488.98
  Q 285.06 485.23 287.39 481.85
  C 289.24 479.15 290.36 476.04 292.31 473.05
  C 295.41 468.30 297.51 464.06 300.95 458.71
  Q 302.73 455.94 305.53 449.34
  A 1.53 0.83 -48.9 0 1 305.62 449.16
  L 312.71 437.57"
/>
<path stroke="#e0ad5f" vector-effect="non-scaling-stroke" d="
  M 264.03 336.01
  C 245.03 332.35 224.02 329.13 210.73 347.07
  C 200.02 361.51 197.58 380.28 197.83 398.85"
/>
<path stroke="#7a613a" vector-effect="non-scaling-stroke" d="
  M 342.76 432.53
  L 305.64 496.96"
/>
<path stroke="#634b2b" vector-effect="non-scaling-stroke" d="
  M 305.64 496.96
  L 283.99 534.45
  A 1.41 1.40 -46.1 0 0 284.01 535.89
  L 311.84 581.73
  A 0.62 0.62 0.0 0 0 312.68 581.95
  Q 313.26 581.62 313.17 581.17"
/>
<path stroke="#7a613a" vector-effect="non-scaling-stroke" d="
  M 313.17 581.17
  L 375.66 475.04"
/>
<path stroke="#7f6d4b" vector-effect="non-scaling-stroke" d="
  M 375.66 475.04
  Q 413.15 411.71 423.26 394.27
  Q 433.22 377.10 448.60 366.34
  C 452.32 363.74 456.86 361.52 461.09 359.33"
/>
<path stroke="#81755a" vector-effect="non-scaling-stroke" d="
  M 461.09 359.33
  C 462.96 358.58 464.92 357.53 466.65 356.91
  Q 503.67 343.56 522.47 336.19
  C 541.42 328.75 559.37 316.03 570.46 299.47
  Q 577.11 289.54 579.70 284.20
  C 586.24 270.75 592.03 258.89 599.88 247.79
  A 0.38 0.38 0.0 0 0 599.33 247.27
  C 580.24 262.50 556.48 272.35 533.07 280.80
  Q 469.66 303.68 435.01 316.74
  Q 415.14 324.23 398.90 340.41
  C 393.50 345.78 388.11 353.97 384.39 360.39
  Q 364.47 394.83 344.76 428.75
  Q 343.68 430.61 342.76 432.53"
/>
<path stroke="#fadb9a" vector-effect="non-scaling-stroke" d="
  M 461.09 359.33
  L 456.95 359.67"
/>
<path stroke="#f5cf88" vector-effect="non-scaling-stroke" d="
  M 456.95 359.67
  L 464.22 356.09"
/>
<path stroke="#fadb9a" vector-effect="non-scaling-stroke" d="
  M 464.22 356.09
  Q 501.93 342.63 521.95 334.72
  Q 533.42 330.19 546.53 321.00
  C 550.04 318.54 553.14 315.15 556.24 312.75
  Q 559.41 310.30 562.92 305.91
  Q 570.63 296.28 572.54 293.05
  Q 575.64 287.83 582.98 272.05
  A 0.72 0.71 -57.9 0 0 582.79 271.19
  Q 578.80 267.91 574.29 266.90
  A 5.93 5.91 -52.0 0 0 570.34 267.39
  Q 567.53 268.80 563.59 271.01
  Q 561.20 272.35 556.61 274.01
  Q 548.75 276.85 543.37 279.05
  Q 540.23 280.33 537.50 281.19
  C 531.51 283.09 528.01 284.54 518.75 287.85
  Q 511.39 290.48 505.93 292.51
  Q 491.87 297.77 476.18 303.15
  C 475.14 303.51 474.10 304.18 473.20 304.47
  Q 463.93 307.43 454.92 311.19"
/>
<path stroke="#f5cf88" vector-effect="non-scaling-stroke" d="
  M 454.92 311.19
  Q 448.73 313.63 442.34 315.67
  Q 435.85 317.75 432.18 319.71
  Q 420.02 326.21 413.40 330.19
  Q 411.22 331.51 404.77 337.40
  A 2.89 2.86 -6.0 0 0 404.23 338.06
  Q 402.67 340.73 399.97 342.42
  A 2.38 2.21 -80.8 0 0 399.65 342.67
  L 397.14 345.09
  A 2.12 2.04 -10.2 0 0 396.75 345.63
  Q 395.48 348.27 392.77 350.51
  Q 392.39 350.82 390.10 354.15
  A 0.64 0.54 -21.8 0 0 390.01 354.32
  L 388.46 358.54
  A 2.57 2.53 -11.5 0 1 387.81 359.51
  Q 385.83 361.34 383.74 365.25
  C 381.06 370.27 377.85 374.60 374.87 379.98
  Q 372.61 384.07 369.84 388.81
  Q 351.89 419.47 348.29 426.28
  Q 347.25 428.24 346.64 428.93
  A 1.45 0.13 -47.2 0 0 346.03 429.72
  Q 344.88 432.07 343.85 433.59
  A 0.64 0.63 -41.1 0 1 342.75 433.53
  Q 342.56 433.11 342.76 432.53"
/>
<path stroke="#f3c77a" vector-effect="non-scaling-stroke" d="
  M 375.66 475.04
  Q 375.35 474.44 374.28 474.31"
/>
<path stroke="#e5b970" vector-effect="non-scaling-stroke" d="
  M 374.28 474.31
  L 385.80 453.99"
/>
<path stroke="#f3c77a" vector-effect="non-scaling-stroke" d="
  M 456.95 359.67
  Q 443.99 365.76 434.25 376.52
  Q 426.23 385.38 420.21 395.72
  Q 404.44 422.81 388.50 449.81
  Q 387.26 451.92 385.80 453.99"
/>
<path stroke="#e0ad5f" vector-effect="non-scaling-stroke" d="
  M 385.80 453.99
  Q 384.65 447.40 382.36 441.15
  C 375.57 422.70 359.23 427.39 345.32 432.87
  A 2.31 2.24 6.7 0 0 344.34 433.62
  Q 341.61 437.33 340.47 441.26
  A 1.69 1.44 -26.5 0 1 340.33 441.59
  L 326.35 464.75
  A 1.82 1.82 0.0 0 0 326.17 465.11
  Q 324.13 470.56 323.34 471.34
  Q 320.83 473.84 319.94 475.44
  Q 316.52 481.64 313.07 487.81"
/>
<path stroke="#d7a55a" vector-effect="non-scaling-stroke" d="
  M 313.07 487.81
  Q 310.21 492.45 307.83 497.31
  Q 307.32 498.36 306.01 498.53
  A 0.51 0.51 0.0 0 1 305.43 498.05
  Q 305.40 497.51 305.64 496.96"
/>
<path stroke="#f3c77a" vector-effect="non-scaling-stroke" d="
  M 464.22 356.09
  C 467.95 339.10 462.14 325.81 454.92 311.19"
/>
<path stroke="#e0ad5f" vector-effect="non-scaling-stroke" d="
  M 374.28 474.31
  L 367.04 486.31"
/>
<path stroke="#c99750" vector-effect="non-scaling-stroke" d="
  M 367.04 486.31
  Q 362.75 480.66 358.34 477.34
  C 346.16 468.17 331.06 472.84 318.65 478.78
  A 1.15 1.12 -86.9 0 0 318.15 479.24
  L 313.07 487.81"
/>
<path stroke="#cb9b54" vector-effect="non-scaling-stroke" d="
  M 312.35 579.29
  L 338.57 534.83"
/>
<path stroke="#d7a55a" vector-effect="non-scaling-stroke" d="
  M 367.04 486.31
  L 338.57 534.83"
/>
<path stroke="#b48546" vector-effect="non-scaling-stroke" d="
  M 338.57 534.83
  C 326.20 525.64 313.43 521.62 298.77 529.36
  Q 295.29 531.20 289.01 536.91
  A 0.88 0.88 0.0 0 0 288.74 537.77
  Q 289.77 541.95 291.24 544.56
  Q 295.74 552.55 300.12 558.76
  A 3.80 3.42 -75.7 0 1 300.53 559.54
  Q 300.94 560.64 302.02 562.52
  Q 307.52 572.13 312.35 579.29"
/>
<path stroke="#d7a55a" vector-effect="non-scaling-stroke" d="
  M 312.35 579.29
  L 312.06 580.22
  A 0.69 0.67 -57.2 0 0 312.19 580.86
  Q 312.69 581.43 313.17 581.17"
/>
</g>
<path fill="#06070b" d="
  M 665.00 0.00
  L 665.00 665.00
  L 0.00 665.00
  L 0.00 0.00
  L 665.00 0.00
  Z
  M 382.38 305.46
  L 363.08 345.25
  A 0.27 0.27 0.0 0 0 363.47 345.59
  Q 364.41 344.97 364.74 344.48
  Q 374.44 329.69 386.04 316.49
  Q 400.02 302.79 413.51 294.51
  Q 428.19 285.50 447.65 278.53
  Q 468.48 271.07 489.30 263.56
  Q 491.82 262.65 494.29 261.62
  Q 523.50 251.00 552.65 240.16
  Q 570.38 233.57 585.23 223.94
  Q 612.21 206.45 627.58 176.57
  C 635.35 161.45 640.03 145.60 649.19 132.59
  A 0.41 0.41 0.0 0 0 648.59 132.03
  Q 626.21 150.31 600.19 163.20
  Q 582.93 171.74 561.10 179.60
  Q 483.64 207.52 477.75 209.64
  C 462.37 215.16 450.53 220.32 438.28 228.55
  C 421.69 239.69 408.98 254.72 399.36 272.37
  Q 390.46 288.71 382.38 305.46
  Z
  M 74.28 221.27
  Q 90.23 237.90 101.88 254.62
  Q 114.05 272.06 135.20 304.78
  Q 185.81 383.05 236.42 461.30
  L 269.66 513.19
  A 0.81 0.81 0.0 0 0 271.04 513.16
  L 321.04 426.56
  A 1.37 1.37 0.0 0 0 321.02 425.17
  L 301.66 393.98
  Q 250.49 311.04 198.73 228.47
  Q 194.65 221.96 190.52 215.49
  Q 186.11 208.61 178.76 201.73
  Q 164.58 187.98 145.51 188.01
  Q 108.84 188.05 25.75 188.10
  Q 25.46 188.10 25.38 188.42
  A 0.39 0.38 16.3 0 0 25.64 188.89
  Q 31.23 190.73 38.42 194.63
  Q 58.20 205.35 74.28 221.27
  Z
  M 342.76 432.53
  L 305.64 496.96
  L 283.99 534.45
  A 1.41 1.40 -46.1 0 0 284.01 535.89
  L 311.84 581.73
  A 0.62 0.62 0.0 0 0 312.68 581.95
  Q 313.26 581.62 313.17 581.17
  L 375.66 475.04
  Q 413.15 411.71 423.26 394.27
  Q 433.22 377.10 448.60 366.34
  C 452.32 363.74 456.86 361.52 461.09 359.33
  C 462.96 358.58 464.92 357.53 466.65 356.91
  Q 503.67 343.56 522.47 336.19
  C 541.42 328.75 559.37 316.03 570.46 299.47
  Q 577.11 289.54 579.70 284.20
  C 586.24 270.75 592.03 258.89 599.88 247.79
  A 0.38 0.38 0.0 0 0 599.33 247.27
  C 580.24 262.50 556.48 272.35 533.07 280.80
  Q 469.66 303.68 435.01 316.74
  Q 415.14 324.23 398.90 340.41
  C 393.50 345.78 388.11 353.97 384.39 360.39
  Q 364.47 394.83 344.76 428.75
  Q 343.68 430.61 342.76 432.53
  Z"
/>
<path fill="#fce3a8" d="
  M 494.29 261.62
  Q 493.37 261.71 492.85 261.38
  A 0.45 0.44 48.1 0 1 492.89 260.60
  C 500.97 256.69 510.12 253.83 517.79 250.87
  Q 533.19 244.95 547.83 239.58
  Q 550.02 238.77 554.56 236.58
  A 3.00 2.90 -78.7 0 0 555.37 236.02
  C 560.12 231.45 562.83 227.35 559.45 220.98
  Q 557.41 217.13 555.58 214.58
  Q 547.06 202.77 536.24 191.30
  A 1.03 1.02 56.4 0 0 535.08 191.06
  C 530.40 193.10 525.41 194.06 520.96 196.13
  Q 519.64 196.74 514.17 198.40
  Q 511.61 199.17 507.41 200.78
  Q 492.67 206.43 482.30 209.58
  Q 479.27 210.50 472.50 213.59
  Q 470.48 214.51 462.60 217.30
  Q 458.78 218.65 452.32 222.14
  Q 452.27 222.16 445.04 226.09
  Q 441.14 228.21 437.23 231.57
  A 5.28 4.88 6.6 0 1 436.45 232.14
  C 432.10 234.72 427.89 238.34 421.96 244.17
  Q 417.24 248.66 413.40 253.89
  C 408.41 260.71 403.65 267.16 400.18 274.96
  A 7.47 6.84 -17.7 0 1 399.47 276.20
  Q 397.19 279.34 396.41 280.89
  Q 391.02 291.64 385.19 303.19
  Q 384.30 304.96 383.29 306.18
  A 0.53 0.53 0.0 0 1 382.43 306.12
  Q 382.32 305.93 382.38 305.46
  Q 390.46 288.71 399.36 272.37
  C 408.98 254.72 421.69 239.69 438.28 228.55
  C 450.53 220.32 462.37 215.16 477.75 209.64
  Q 483.64 207.52 561.10 179.60
  Q 582.93 171.74 600.19 163.20
  Q 626.21 150.31 648.59 132.03
  A 0.41 0.41 0.0 0 1 649.19 132.59
  C 640.03 145.60 635.35 161.45 627.58 176.57
  Q 612.21 206.45 585.23 223.94
  Q 570.38 233.57 552.65 240.16
  Q 523.50 251.00 494.29 261.62
  Z"
/>
<path fill="#fce3a8" d="
  M 178.76 201.73
  Q 175.19 202.67 171.61 198.43
  A 3.19 3.03 -1.5 0 0 170.99 197.87
  Q 164.64 193.38 156.66 191.22
  Q 151.13 189.72 142.38 189.86
  Q 124.70 190.15 89.00 189.90
  C 77.63 189.82 67.90 190.31 56.67 190.08
  Q 48.27 189.91 37.15 190.51
  A 0.48 0.48 0.0 0 0 36.92 191.40
  C 42.48 194.82 46.75 198.00 52.11 200.74
  Q 55.57 202.52 58.71 205.75
  C 61.87 209.00 65.60 211.60 69.23 214.27
  Q 71.72 216.10 74.28 221.27
  Q 58.20 205.35 38.42 194.63
  Q 31.23 190.73 25.64 188.89
  A 0.39 0.38 16.3 0 1 25.38 188.42
  Q 25.46 188.10 25.75 188.10
  Q 108.84 188.05 145.51 188.01
  Q 164.58 187.98 178.76 201.73
  Z"
/>
<path fill="#f8d38b" d="
  M 178.76 201.73
  Q 186.11 208.61 190.52 215.49
  Q 194.65 221.96 198.73 228.47
  Q 250.49 311.04 301.66 393.98
  L 300.34 394.98
  L 290.03 377.98
  Q 287.98 374.58 285.75 371.30
  Q 283.41 367.86 281.59 364.56
  Q 276.92 356.08 272.34 349.65
  Q 267.18 342.39 264.03 336.01
  Q 260.03 329.97 256.18 324.06
  Q 253.19 319.45 249.78 313.13
  Q 246.38 306.83 242.27 301.80
  A 5.89 5.37 -81.0 0 1 241.61 300.80
  Q 236.74 291.41 231.27 284.22
  C 228.65 280.77 226.82 277.12 225.05 273.18
  A 4.31 4.27 7.2 0 0 223.74 271.51
  C 205.72 257.51 177.30 245.24 154.69 253.89
  C 141.74 258.85 131.16 269.36 121.92 280.07
  A 0.75 0.75 0.0 0 0 121.83 280.91
  Q 124.40 285.67 128.30 290.48
  Q 129.34 291.76 129.92 292.79
  Q 130.14 293.18 131.38 295.22
  Q 141.02 311.07 148.56 321.92
  C 151.66 326.40 153.81 330.85 156.72 335.00
  C 160.72 340.72 165.10 347.53 167.57 351.34
  Q 170.20 355.37 173.02 360.00
  Q 184.94 379.56 197.83 398.85
  L 218.21 430.90
  L 239.49 463.72
  L 236.42 461.30
  Q 185.81 383.05 135.20 304.78
  Q 114.05 272.06 101.88 254.62
  Q 90.23 237.90 74.28 221.27
  Q 71.72 216.10 69.23 214.27
  C 65.60 211.60 61.87 209.00 58.71 205.75
  Q 55.57 202.52 52.11 200.74
  C 46.75 198.00 42.48 194.82 36.92 191.40
  A 0.48 0.48 0.0 0 1 37.15 190.51
  Q 48.27 189.91 56.67 190.08
  C 67.90 190.31 77.63 189.82 89.00 189.90
  Q 124.70 190.15 142.38 189.86
  Q 151.13 189.72 156.66 191.22
  Q 164.64 193.38 170.99 197.87
  A 3.19 3.03 -1.5 0 1 171.61 198.43
  Q 175.19 202.67 178.76 201.73
  Z"
/>
<path fill="#f8d38b" d="
  M 494.29 261.62
  Q 491.82 262.65 489.30 263.56
  Q 468.48 271.07 447.65 278.53
  Q 428.19 285.50 413.51 294.51
  Q 400.02 302.79 386.04 316.49
  Q 391.45 308.23 400.67 301.40
  Q 418.03 288.53 434.92 281.66
  Q 447.99 276.35 453.91 274.39
  Q 453.95 274.38 456.81 272.79
  A 0.34 0.34 0.0 0 0 456.86 272.23
  L 421.96 244.17
  C 427.89 238.34 432.10 234.72 436.45 232.14
  A 5.28 4.88 6.6 0 0 437.23 231.57
  Q 441.14 228.21 445.04 226.09
  Q 452.27 222.16 452.32 222.14
  Q 458.78 218.65 462.60 217.30
  Q 470.48 214.51 472.50 213.59
  Q 479.27 210.50 482.30 209.58
  Q 492.67 206.43 507.41 200.78
  Q 511.61 199.17 514.17 198.40
  Q 519.64 196.74 520.96 196.13
  C 525.41 194.06 530.40 193.10 535.08 191.06
  A 1.03 1.02 56.4 0 1 536.24 191.30
  Q 547.06 202.77 555.58 214.58
  Q 557.41 217.13 559.45 220.98
  C 562.83 227.35 560.12 231.45 555.37 236.02
  A 3.00 2.90 -78.7 0 1 554.56 236.58
  Q 550.02 238.77 547.83 239.58
  Q 533.19 244.95 517.79 250.87
  C 510.12 253.83 500.97 256.69 492.89 260.60
  A 0.45 0.44 48.1 0 0 492.85 261.38
  Q 493.37 261.71 494.29 261.62
  Z"
/>
<path fill="#edbb68" d="
  M 421.96 244.17
  L 456.86 272.23
  A 0.34 0.34 0.0 0 1 456.81 272.79
  Q 453.95 274.38 453.91 274.39
  Q 447.99 276.35 434.92 281.66
  Q 418.03 288.53 400.67 301.40
  Q 391.45 308.23 386.04 316.49
  Q 374.44 329.69 364.74 344.48
  Q 364.41 344.97 363.47 345.59
  A 0.27 0.27 0.0 0 1 363.08 345.25
  L 382.38 305.46
  Q 382.32 305.93 382.43 306.12
  A 0.53 0.53 0.0 0 0 383.29 306.18
  Q 384.30 304.96 385.19 303.19
  Q 391.02 291.64 396.41 280.89
  Q 397.19 279.34 399.47 276.20
  A 7.47 6.84 -17.7 0 0 400.18 274.96
  C 403.65 267.16 408.41 260.71 413.40 253.89
  Q 417.24 248.66 421.96 244.17
  Z"
/>
<path fill="#edbb68" d="
  M 264.03 336.01
  C 245.03 332.35 224.02 329.13 210.73 347.07
  C 200.02 361.51 197.58 380.28 197.83 398.85
  Q 184.94 379.56 173.02 360.00
  Q 170.20 355.37 167.57 351.34
  C 165.10 347.53 160.72 340.72 156.72 335.00
  C 153.81 330.85 151.66 326.40 148.56 321.92
  Q 141.02 311.07 131.38 295.22
  Q 130.14 293.18 129.92 292.79
  Q 129.34 291.76 128.30 290.48
  Q 124.40 285.67 121.83 280.91
  A 0.75 0.75 0.0 0 1 121.92 280.07
  C 131.16 269.36 141.74 258.85 154.69 253.89
  C 177.30 245.24 205.72 257.51 223.74 271.51
  A 4.31 4.27 7.2 0 1 225.05 273.18
  C 226.82 277.12 228.65 280.77 231.27 284.22
  Q 236.74 291.41 241.61 300.80
  A 5.89 5.37 -81.0 0 0 242.27 301.80
  Q 246.38 306.83 249.78 313.13
  Q 253.19 319.45 256.18 324.06
  Q 260.03 329.97 264.03 336.01
  Z"
/>
<path fill="#fce3a8" d="
  M 461.09 359.33
  L 456.95 359.67
  L 464.22 356.09
  Q 501.93 342.63 521.95 334.72
  Q 533.42 330.19 546.53 321.00
  C 550.04 318.54 553.14 315.15 556.24 312.75
  Q 559.41 310.30 562.92 305.91
  Q 570.63 296.28 572.54 293.05
  Q 575.64 287.83 582.98 272.05
  A 0.72 0.71 -57.9 0 0 582.79 271.19
  Q 578.80 267.91 574.29 266.90
  A 5.93 5.91 -52.0 0 0 570.34 267.39
  Q 567.53 268.80 563.59 271.01
  Q 561.20 272.35 556.61 274.01
  Q 548.75 276.85 543.37 279.05
  Q 540.23 280.33 537.50 281.19
  C 531.51 283.09 528.01 284.54 518.75 287.85
  Q 511.39 290.48 505.93 292.51
  Q 491.87 297.77 476.18 303.15
  C 475.14 303.51 474.10 304.18 473.20 304.47
  Q 463.93 307.43 454.92 311.19
  Q 448.73 313.63 442.34 315.67
  Q 435.85 317.75 432.18 319.71
  Q 420.02 326.21 413.40 330.19
  Q 411.22 331.51 404.77 337.40
  A 2.89 2.86 -6.0 0 0 404.23 338.06
  Q 402.67 340.73 399.97 342.42
  A 2.38 2.21 -80.8 0 0 399.65 342.67
  L 397.14 345.09
  A 2.12 2.04 -10.2 0 0 396.75 345.63
  Q 395.48 348.27 392.77 350.51
  Q 392.39 350.82 390.10 354.15
  A 0.64 0.54 -21.8 0 0 390.01 354.32
  L 388.46 358.54
  A 2.57 2.53 -11.5 0 1 387.81 359.51
  Q 385.83 361.34 383.74 365.25
  C 381.06 370.27 377.85 374.60 374.87 379.98
  Q 372.61 384.07 369.84 388.81
  Q 351.89 419.47 348.29 426.28
  Q 347.25 428.24 346.64 428.93
  A 1.45 0.13 -47.2 0 0 346.03 429.72
  Q 344.88 432.07 343.85 433.59
  A 0.64 0.63 -41.1 0 1 342.75 433.53
  Q 342.56 433.11 342.76 432.53
  Q 343.68 430.61 344.76 428.75
  Q 364.47 394.83 384.39 360.39
  C 388.11 353.97 393.50 345.78 398.90 340.41
  Q 415.14 324.23 435.01 316.74
  Q 469.66 303.68 533.07 280.80
  C 556.48 272.35 580.24 262.50 599.33 247.27
  A 0.38 0.38 0.0 0 1 599.88 247.79
  C 592.03 258.89 586.24 270.75 579.70 284.20
  Q 577.11 289.54 570.46 299.47
  C 559.37 316.03 541.42 328.75 522.47 336.19
  Q 503.67 343.56 466.65 356.91
  C 464.92 357.53 462.96 358.58 461.09 359.33
  Z"
/>
<path fill="#f8d38b" d="
  M 464.22 356.09
  C 467.95 339.10 462.14 325.81 454.92 311.19
  Q 463.93 307.43 473.20 304.47
  C 474.10 304.18 475.14 303.51 476.18 303.15
  Q 491.87 297.77 505.93 292.51
  Q 511.39 290.48 518.75 287.85
  C 528.01 284.54 531.51 283.09 537.50 281.19
  Q 540.23 280.33 543.37 279.05
  Q 548.75 276.85 556.61 274.01
  Q 561.20 272.35 563.59 271.01
  Q 567.53 268.80 570.34 267.39
  A 5.93 5.91 -52.0 0 1 574.29 266.90
  Q 578.80 267.91 582.79 271.19
  A 0.72 0.71 -57.9 0 1 582.98 272.05
  Q 575.64 287.83 572.54 293.05
  Q 570.63 296.28 562.92 305.91
  Q 559.41 310.30 556.24 312.75
  C 553.14 315.15 550.04 318.54 546.53 321.00
  Q 533.42 330.19 521.95 334.72
  Q 501.93 342.63 464.22 356.09
  Z"
/>
<path fill="#edbb68" d="
  M 454.92 311.19
  C 462.14 325.81 467.95 339.10 464.22 356.09
  L 456.95 359.67
  Q 443.99 365.76 434.25 376.52
  Q 426.23 385.38 420.21 395.72
  Q 404.44 422.81 388.50 449.81
  Q 387.26 451.92 385.80 453.99
  Q 384.65 447.40 382.36 441.15
  C 375.57 422.70 359.23 427.39 345.32 432.87
  A 2.31 2.24 6.7 0 0 344.34 433.62
  Q 341.61 437.33 340.47 441.26
  A 1.69 1.44 -26.5 0 1 340.33 441.59
  L 326.35 464.75
  A 1.82 1.82 0.0 0 0 326.17 465.11
  Q 324.13 470.56 323.34 471.34
  Q 320.83 473.84 319.94 475.44
  Q 316.52 481.64 313.07 487.81
  Q 310.21 492.45 307.83 497.31
  Q 307.32 498.36 306.01 498.53
  A 0.51 0.51 0.0 0 1 305.43 498.05
  Q 305.40 497.51 305.64 496.96
  L 342.76 432.53
  Q 342.56 433.11 342.75 433.53
  A 0.64 0.63 -41.1 0 0 343.85 433.59
  Q 344.88 432.07 346.03 429.72
  A 1.45 0.13 -47.2 0 1 346.64 428.93
  Q 347.25 428.24 348.29 426.28
  Q 351.89 419.47 369.84 388.81
  Q 372.61 384.07 374.87 379.98
  C 377.85 374.60 381.06 370.27 383.74 365.25
  Q 385.83 361.34 387.81 359.51
  A 2.57 2.53 -11.5 0 0 388.46 358.54
  L 390.01 354.32
  A 0.64 0.54 -21.8 0 1 390.10 354.15
  Q 392.39 350.82 392.77 350.51
  Q 395.48 348.27 396.75 345.63
  A 2.12 2.04 -10.2 0 1 397.14 345.09
  L 399.65 342.67
  A 2.38 2.21 -80.8 0 1 399.97 342.42
  Q 402.67 340.73 404.23 338.06
  A 2.89 2.86 -6.0 0 1 404.77 337.40
  Q 411.22 331.51 413.40 330.19
  Q 420.02 326.21 432.18 319.71
  Q 435.85 317.75 442.34 315.67
  Q 448.73 313.63 454.92 311.19
  Z"
/>
<path fill="#d29f55" d="
  M 264.03 336.01
  Q 267.18 342.39 272.34 349.65
  Q 276.92 356.08 281.59 364.56
  Q 283.41 367.86 285.75 371.30
  Q 287.98 374.58 290.03 377.98
  C 277.73 372.79 263.14 367.96 249.72 371.95
  C 233.76 376.69 226.95 389.73 223.31 405.45
  Q 220.41 417.96 218.21 430.90
  L 197.83 398.85
  C 197.58 380.28 200.02 361.51 210.73 347.07
  C 224.02 329.13 245.03 332.35 264.03 336.01
  Z"
/>
<path fill="#f8d38b" d="
  M 461.09 359.33
  C 456.86 361.52 452.32 363.74 448.60 366.34
  Q 433.22 377.10 423.26 394.27
  Q 413.15 411.71 375.66 475.04
  Q 375.35 474.44 374.28 474.31
  L 385.80 453.99
  Q 387.26 451.92 388.50 449.81
  Q 404.44 422.81 420.21 395.72
  Q 426.23 385.38 434.25 376.52
  Q 443.99 365.76 456.95 359.67
  L 461.09 359.33
  Z"
/>
<path fill="#c08f4b" d="
  M 290.03 377.98
  L 300.34 394.98
  L 318.48 424.14
  A 3.07 3.04 -46.3 0 1 318.54 427.25
  L 312.71 437.57
  Q 305.14 432.23 301.27 430.70
  Q 284.10 423.92 270.72 434.12
  C 255.02 446.08 253.11 468.51 254.58 486.63
  L 239.49 463.72
  L 218.21 430.90
  Q 220.41 417.96 223.31 405.45
  C 226.95 389.73 233.76 376.69 249.72 371.95
  C 263.14 367.96 277.73 372.79 290.03 377.98
  Z"
/>
<path fill="#d29f55" d="
  M 301.66 393.98
  L 321.02 425.17
  A 1.37 1.37 0.0 0 1 321.04 426.56
  L 271.04 513.16
  A 0.81 0.81 0.0 0 1 269.66 513.19
  L 236.42 461.30
  L 239.49 463.72
  L 254.58 486.63
  Q 256.99 491.53 260.76 495.91
  Q 260.81 495.98 260.86 496.05
  L 269.56 510.26
  A 0.68 0.67 -38.4 0 0 270.62 510.38
  Q 271.88 509.10 272.74 506.77
  A 4.38 3.92 -21.3 0 1 273.12 506.02
  Q 276.29 501.14 277.83 497.83
  C 279.28 494.72 281.71 492.13 283.24 488.98
  Q 285.06 485.23 287.39 481.85
  C 289.24 479.15 290.36 476.04 292.31 473.05
  C 295.41 468.30 297.51 464.06 300.95 458.71
  Q 302.73 455.94 305.53 449.34
  A 1.53 0.83 -48.9 0 1 305.62 449.16
  L 312.71 437.57
  L 318.54 427.25
  A 3.07 3.04 -46.3 0 0 318.48 424.14
  L 300.34 394.98
  L 301.66 393.98
  Z"
/>
<path fill="#d29f55" d="
  M 385.80 453.99
  L 374.28 474.31
  L 367.04 486.31
  Q 362.75 480.66 358.34 477.34
  C 346.16 468.17 331.06 472.84 318.65 478.78
  A 1.15 1.12 -86.9 0 0 318.15 479.24
  L 313.07 487.81
  Q 316.52 481.64 319.94 475.44
  Q 320.83 473.84 323.34 471.34
  Q 324.13 470.56 326.17 465.11
  A 1.82 1.82 0.0 0 1 326.35 464.75
  L 340.33 441.59
  A 1.69 1.44 -26.5 0 0 340.47 441.26
  Q 341.61 437.33 344.34 433.62
  A 2.31 2.24 6.7 0 1 345.32 432.87
  C 359.23 427.39 375.57 422.70 382.36 441.15
  Q 384.65 447.40 385.80 453.99
  Z"
/>
<path fill="#a87b40" d="
  M 312.71 437.57
  L 305.62 449.16
  A 1.53 0.83 -48.9 0 0 305.53 449.34
  Q 302.73 455.94 300.95 458.71
  C 297.51 464.06 295.41 468.30 292.31 473.05
  C 290.36 476.04 289.24 479.15 287.39 481.85
  Q 285.06 485.23 283.24 488.98
  C 281.71 492.13 279.28 494.72 277.83 497.83
  Q 276.29 501.14 273.12 506.02
  A 4.38 3.92 -21.3 0 0 272.74 506.77
  Q 271.88 509.10 270.62 510.38
  A 0.68 0.67 -38.4 0 1 269.56 510.26
  L 260.86 496.05
  Q 260.81 495.98 260.76 495.91
  Q 256.99 491.53 254.58 486.63
  C 253.11 468.51 255.02 446.08 270.72 434.12
  Q 284.10 423.92 301.27 430.70
  Q 305.14 432.23 312.71 437.57
  Z"
/>
<path fill="#c08f4b" d="
  M 367.04 486.31
  L 338.57 534.83
  C 326.20 525.64 313.43 521.62 298.77 529.36
  Q 295.29 531.20 289.01 536.91
  A 0.88 0.88 0.0 0 0 288.74 537.77
  Q 289.77 541.95 291.24 544.56
  Q 295.74 552.55 300.12 558.76
  A 3.80 3.42 -75.7 0 1 300.53 559.54
  Q 300.94 560.64 302.02 562.52
  Q 307.52 572.13 312.35 579.29
  L 312.06 580.22
  A 0.69 0.67 -57.2 0 0 312.19 580.86
  Q 312.69 581.43 313.17 581.17
  Q 313.26 581.62 312.68 581.95
  A 0.62 0.62 0.0 0 1 311.84 581.73
  L 284.01 535.89
  A 1.41 1.40 -46.1 0 1 283.99 534.45
  L 305.64 496.96
  Q 305.40 497.51 305.43 498.05
  A 0.51 0.51 0.0 0 0 306.01 498.53
  Q 307.32 498.36 307.83 497.31
  Q 310.21 492.45 313.07 487.81
  L 318.15 479.24
  A 1.15 1.12 -86.9 0 1 318.65 478.78
  C 331.06 472.84 346.16 468.17 358.34 477.34
  Q 362.75 480.66 367.04 486.31
  Z"
/>
<path fill="#edbb68" d="
  M 375.66 475.04
  L 313.17 581.17
  Q 312.69 581.43 312.19 580.86
  A 0.69 0.67 -57.2 0 1 312.06 580.22
  L 312.35 579.29
  L 338.57 534.83
  L 367.04 486.31
  L 374.28 474.31
  Q 375.35 474.44 375.66 475.04
  Z"
/>
<path fill="#a87b40" d="
  M 338.57 534.83
  L 312.35 579.29
  Q 307.52 572.13 302.02 562.52
  Q 300.94 560.64 300.53 559.54
  A 3.80 3.42 -75.7 0 0 300.12 558.76
  Q 295.74 552.55 291.24 544.56
  Q 289.77 541.95 288.74 537.77
  A 0.88 0.88 0.0 0 1 289.01 536.91
  Q 295.29 531.20 298.77 529.36
  C 313.43 521.62 326.20 525.64 338.57 534.83
  Z"
/>
</svg>
