<?xml version="1.0" encoding="UTF-8" standalone="no"?>
<!DOCTYPE svg PUBLIC "-//W3C//DTD SVG 1.1//EN" "http://www.w3.org/Graphics/SVG/1.1/DTD/svg11.dtd">
<svg xmlns="http://www.w3.org/2000/svg" version="1.1" viewBox="0.00 0.00 392.00 347.00">
<g stroke-width="2.00" fill="none" stroke-linecap="butt">
<path stroke="#73706d" vector-effect="non-scaling-stroke" d="
  M 137.54 92.45
  Q 124.65 92.66 111.75 92.74
  Q 109.81 92.75 109.04 94.17
  A 1.48 1.37 -32.9 0 0 108.87 94.84
  L 108.87 104.53
  A 0.61 0.60 78.5 0 0 109.71 105.09
  Q 110.70 104.68 112.00 104.68
  Q 123.10 104.74 134.20 104.58"
/>
<path stroke="#353330" vector-effect="non-scaling-stroke" d="
  M 134.20 104.58
  Q 141.34 105.06 148.48 105.17
  Q 157.69 105.30 162.76 105.62
  Q 184.15 106.96 201.95 107.38
  Q 204.89 107.45 208.03 107.89
  Q 210.87 108.29 214.11 108.63
  Q 213.52 108.55 213.01 108.62
  A 0.22 0.22 0.0 0 0 212.93 109.02
  Q 212.94 109.03 219.92 110.67
  Q 221.57 111.05 222.48 112.15
  A 2.03 2.02 81.4 0 0 223.17 112.66
  Q 227.68 114.67 230.46 118.20
  A 1.79 1.70 80.2 0 0 231.20 118.75
  Q 232.17 119.14 232.80 119.88
  Q 235.78 123.40 239.15 127.46
  A 0.14 0.11 -83.0 0 1 239.18 127.51
  L 246.53 143.36"
/>
<path stroke="#73706d" vector-effect="non-scaling-stroke" d="
  M 246.53 143.36
  Q 250.06 162.31 239.59 177.34
  Q 229.98 191.15 213.30 195.53
  Q 207.48 197.05 194.63 196.81
  Q 178.84 196.50 155.50 196.88
  A 0.87 0.87 0.0 0 0 154.74 198.15
  Q 154.99 198.65 155.49 199.03"
/>
<path stroke="#64615c" vector-effect="non-scaling-stroke" d="
  M 155.49 199.03
  Q 155.34 199.21 155.18 199.39"
/>
<path stroke="#54524d" vector-effect="non-scaling-stroke" d="
  M 155.18 199.39
  Q 161.87 207.34 164.70 209.80
  Q 167.91 212.60 169.23 214.90
  A 3.74 3.54 24.2 0 0 169.54 215.32
  C 178.09 225.19 189.20 236.25 198.45 246.39
  Q 199.00 246.99 209.60 258.45
  C 212.60 261.69 214.83 264.84 217.65 267.38
  Q 220.80 270.21 223.80 273.66
  Q 226.97 277.29 229.26 279.38
  Q 232.71 282.51 234.73 284.99
  C 237.82 288.80 242.09 293.42 247.10 298.49
  Q 250.10 301.53 252.87 304.90"
/>
<path stroke="#353330" vector-effect="non-scaling-stroke" d="
  M 252.87 304.90
  Q 257.71 305.64 262.61 305.37
  Q 262.62 305.37 262.61 305.37
  L 257.38 305.29
  A 0.22 0.22 0.0 0 1 257.16 305.06
  L 257.16 305.05
  A 0.22 0.22 0.0 0 1 257.40 304.84
  Q 264.14 305.21 270.81 304.12"
/>
<path stroke="#73706d" vector-effect="non-scaling-stroke" d="
  M 270.81 304.12
  Q 271.32 304.41 271.94 304.38
  A 0.27 0.27 0.0 0 0 272.13 303.93
  L 185.18 209.91"
/>
<path stroke="#54524d" vector-effect="non-scaling-stroke" d="
  M 185.18 209.91
  Q 185.19 209.24 186.47 209.29"
/>
<path stroke="#353330" vector-effect="non-scaling-stroke" d="
  M 186.47 209.29
  Q 187.70 210.67 189.18 211.41
  A 2.00 1.98 57.5 0 0 190.11 211.62
  Q 198.36 211.53 206.63 211.60
  Q 210.09 211.63 212.75 208.36"
/>
<path stroke="#54524d" vector-effect="non-scaling-stroke" d="
  M 212.75 208.36
  Q 222.00 206.96 230.29 202.52"
/>
<path stroke="#73706d" vector-effect="non-scaling-stroke" d="
  M 230.29 202.52
  Q 239.76 197.92 246.42 190.89
  C 262.19 174.25 267.80 149.33 257.94 127.65
  C 253.89 118.74 248.43 111.21 240.25 105.00
  Q 228.85 96.36 215.73 94.05
  Q 207.04 92.53 205.25 92.59
  Q 200.00 92.76 194.79 92.48"
/>
<path stroke="#4a4844" vector-effect="non-scaling-stroke" d="
  M 194.79 92.48
  L 137.54 92.45"
/>
<path stroke="#ada9a2" vector-effect="non-scaling-stroke" d="
  M 194.79 92.48
  L 137.54 92.45"
/>
<path stroke="#b7b3ac" vector-effect="non-scaling-stroke" d="
  M 230.29 202.52
  L 229.40 202.35
  A 0.44 0.44 0.0 0 1 229.24 201.55
  L 233.10 199.04"
/>
<path stroke="#c7c2bb" vector-effect="non-scaling-stroke" d="
  M 233.10 199.04
  Q 239.68 195.39 244.98 190.31
  C 247.63 187.77 249.51 184.82 252.10 181.30
  C 256.60 175.17 258.12 167.73 260.50 160.63
  A 4.42 4.21 57.6 0 0 260.70 159.62
  C 260.97 155.69 261.65 152.85 261.27 149.61
  Q 260.82 145.76 260.65 145.35
  C 258.59 140.17 254.58 140.87 250.05 142.00
  A 0.58 0.58 0.0 0 0 249.60 142.60
  L 250.09 151.72
  Q 250.09 151.74 250.09 151.75
  Q 250.00 151.91 249.82 152.00
  A 0.41 0.41 0.0 0 0 249.60 152.38
  Q 249.76 159.86 248.74 163.48
  Q 244.22 179.58 230.02 190.14"
/>
<path stroke="#b7b3ac" vector-effect="non-scaling-stroke" d="
  M 230.02 190.14
  Q 217.57 198.78 202.73 198.86
  Q 189.07 198.93 175.49 199.04"
/>
<path stroke="#c7c2bb" vector-effect="non-scaling-stroke" d="
  M 175.49 199.04
  Q 167.71 198.86 160.00 198.63
  Q 158.70 198.59 155.49 199.03"
/>
<path stroke="#98948f" vector-effect="non-scaling-stroke" d="
  M 246.53 143.36
  Q 247.30 138.58 246.59 136.50
  Q 241.77 122.48 229.81 113.66
  Q 228.52 112.71 222.27 109.32
  A 2.94 2.93 66.9 0 0 221.75 109.11
  Q 220.19 108.64 218.70 107.87
  A 0.31 0.30 52.4 0 1 218.77 107.30
  Q 219.37 107.17 220.23 107.90
  A 0.13 0.13 0.0 0 0 220.43 107.73
  Q 220.18 107.27 219.72 107.28
  Q 215.71 107.38 212.75 105.64
  A 2.42 2.31 60.9 0 0 211.75 105.33
  C 206.65 104.91 202.60 104.37 197.24 104.44
  Q 170.59 104.80 151.00 104.58
  Q 140.08 104.46 134.20 104.58"
/>
<path stroke="#a7a49b" vector-effect="non-scaling-stroke" d="
  M 233.10 199.04
  C 233.72 195.66 231.69 192.89 230.02 190.14"
/>
<path stroke="#78766f" vector-effect="non-scaling-stroke" d="
  M 212.75 208.36
  L 186.47 209.29"
/>
<path stroke="#b7b3ac" vector-effect="non-scaling-stroke" d="
  M 185.18 209.91
  Q 184.51 209.10 184.21 209.66
  Q 183.81 210.39 184.32 211.05
  C 189.83 218.12 196.30 224.42 202.26 231.13"
/>
<path stroke="#8e8a83" vector-effect="non-scaling-stroke" d="
  M 202.26 231.13
  L 190.30 227.65
  A 1.61 1.61 0.0 0 0 188.25 229.42
  Q 188.34 230.05 188.64 231.05
  A 2.05 2.01 -75.8 0 0 189.10 231.84
  L 212.82 257.56"
/>
<path stroke="#78766f" vector-effect="non-scaling-stroke" d="
  M 212.82 257.56
  Q 213.52 258.20 214.04 258.72
  Q 216.40 261.12 222.22 267.70
  C 233.66 280.62 246.16 294.00 253.48 302.01
  Q 254.90 303.57 252.87 304.90"
/>
<path stroke="#a7a49b" vector-effect="non-scaling-stroke" d="
  M 155.18 199.39
  Q 160.27 198.93 163.42 201.34
  A 0.47 0.45 50.2 0 0 163.88 201.39
  Q 169.13 198.89 175.49 199.04"
/>
<path stroke="#98948f" vector-effect="non-scaling-stroke" d="
  M 270.81 304.12
  Q 269.02 303.36 267.75 302.01
  Q 249.06 282.17 230.69 262.05
  Q 228.62 259.79 226.63 257.70"
/>
<path stroke="#ada9a2" vector-effect="non-scaling-stroke" d="
  M 226.63 257.70
  L 202.26 231.13"
/>
<path stroke="#6f6c66" vector-effect="non-scaling-stroke" d="
  M 226.63 257.70
  L 212.82 257.56"
/>
<path stroke="#353330" vector-effect="non-scaling-stroke" d="
  M 110.83 309.29
  L 152.76 266.70
  A 0.84 0.80 42.9 0 0 152.69 265.50
  L 152.67 265.48
  A 0.68 0.67 42.4 0 0 151.75 265.52
  L 112.98 304.60
  A 0.18 0.06 -73.2 0 0 112.94 304.66
  Q 111.89 307.55 110.74 306.59"
/>
<path stroke="#73706d" vector-effect="non-scaling-stroke" d="
  M 110.74 306.59
  L 112.02 303.34"
/>
<path stroke="#353330" vector-effect="non-scaling-stroke" d="
  M 112.02 303.34
  Q 114.25 302.44 115.67 300.74
  Q 117.29 298.82 117.33 298.78
  Q 134.66 281.13 151.84 262.90"
/>
<path stroke="#4a4844" vector-effect="non-scaling-stroke" d="
  M 151.84 262.90
  Q 160.27 253.67 169.42 244.67
  Q 170.26 243.84 171.31 243.24"
/>
<path stroke="#73706d" vector-effect="non-scaling-stroke" d="
  M 171.31 243.24
  L 171.92 243.14
  A 0.39 0.38 -26.4 0 0 172.14 242.49
  Q 157.09 227.20 149.71 219.04
  C 143.90 212.63 138.47 207.32 132.10 200.52
  Q 118.22 185.73 113.12 181.08
  Q 112.68 180.68 110.93 179.36
  A 1.08 1.08 0.0 0 0 109.20 180.22
  Q 109.42 244.98 109.42 306.58
  Q 109.42 307.87 110.83 309.29"
/>
<path stroke="#ada9a2" vector-effect="non-scaling-stroke" d="
  M 171.31 243.24
  Q 170.49 243.11 169.91 242.65
  Q 163.58 237.71 158.36 231.63
  Q 156.88 229.90 155.22 228.24"
/>
<path stroke="#c7c2bb" vector-effect="non-scaling-stroke" d="
  M 155.22 228.24
  L 113.26 184.74
  A 0.72 0.72 0.0 0 0 112.02 185.24
  L 112.19 208.20"
/>
<path stroke="#ada9a2" vector-effect="non-scaling-stroke" d="
  M 112.19 208.20
  L 112.10 259.54"
/>
<path stroke="#98948f" vector-effect="non-scaling-stroke" d="
  M 112.10 259.54
  L 112.02 303.34"
/>
<path stroke="#98948f" vector-effect="non-scaling-stroke" d="
  M 110.74 306.59
  Q 109.95 307.07 110.83 309.29"
/>
<path stroke="#6f6c66" vector-effect="non-scaling-stroke" d="
  M 151.84 262.90
  Q 131.82 260.10 112.73 254.39
  A 0.38 0.38 0.0 0 0 112.24 254.74
  L 112.10 259.54"
/>
<path stroke="#9e9a92" vector-effect="non-scaling-stroke" d="
  M 155.22 228.24
  C 139.61 224.37 124.19 219.46 112.19 208.20"
/>
</g>
<path fill="#100f0e" d="
  M 392.00 0.00
  L 392.00 347.00
  L 0.00 347.00
  L 0.00 0.00
  L 392.00 0.00
  Z
  M 137.54 92.45
  Q 124.65 92.66 111.75 92.74
  Q 109.81 92.75 109.04 94.17
  A 1.48 1.37 -32.9 0 0 108.87 94.84
  L 108.87 104.53
  A 0.61 0.60 78.5 0 0 109.71 105.09
  Q 110.70 104.68 112.00 104.68
  Q 123.10 104.74 134.20 104.58
  Q 141.34 105.06 148.48 105.17
  Q 157.69 105.30 162.76 105.62
  Q 184.15 106.96 201.95 107.38
  Q 204.89 107.45 208.03 107.89
  Q 210.87 108.29 214.11 108.63
  Q 213.52 108.55 213.01 108.62
  A 0.22 0.22 0.0 0 0 212.93 109.02
  Q 212.94 109.03 219.92 110.67
  Q 221.57 111.05 222.48 112.15
  A 2.03 2.02 81.4 0 0 223.17 112.66
  Q 227.68 114.67 230.46 118.20
  A 1.79 1.70 80.2 0 0 231.20 118.75
  Q 232.17 119.14 232.80 119.88
  Q 235.78 123.40 239.15 127.46
  A 0.14 0.11 -83.0 0 1 239.18 127.51
  L 246.53 143.36
  Q 250.06 162.31 239.59 177.34
  Q 229.98 191.15 213.30 195.53
  Q 207.48 197.05 194.63 196.81
  Q 178.84 196.50 155.50 196.88
  A 0.87 0.87 0.0 0 0 154.74 198.15
  Q 154.99 198.65 155.49 199.03
  Q 155.34 199.21 155.18 199.39
  Q 161.87 207.34 164.70 209.80
  Q 167.91 212.60 169.23 214.90
  A 3.74 3.54 24.2 0 0 169.54 215.32
  C 178.09 225.19 189.20 236.25 198.45 246.39
  Q 199.00 246.99 209.60 258.45
  C 212.60 261.69 214.83 264.84 217.65 267.38
  Q 220.80 270.21 223.80 273.66
  Q 226.97 277.29 229.26 279.38
  Q 232.71 282.51 234.73 284.99
  C 237.82 288.80 242.09 293.42 247.10 298.49
  Q 250.10 301.53 252.87 304.90
  Q 257.71 305.64 262.61 305.37
  Q 262.62 305.37 262.61 305.37
  L 257.38 305.29
  A 0.22 0.22 0.0 0 1 257.16 305.06
  L 257.16 305.05
  A 0.22 0.22 0.0 0 1 257.40 304.84
  Q 264.14 305.21 270.81 304.12
  Q 271.32 304.41 271.94 304.38
  A 0.27 0.27 0.0 0 0 272.13 303.93
  L 185.18 209.91
  Q 185.19 209.24 186.47 209.29
  Q 187.70 210.67 189.18 211.41
  A 2.00 1.98 57.5 0 0 190.11 211.62
  Q 198.36 211.53 206.63 211.60
  Q 210.09 211.63 212.75 208.36
  Q 222.00 206.96 230.29 202.52
  Q 239.76 197.92 246.42 190.89
  C 262.19 174.25 267.80 149.33 257.94 127.65
  C 253.89 118.74 248.43 111.21 240.25 105.00
  Q 228.85 96.36 215.73 94.05
  Q 207.04 92.53 205.25 92.59
  Q 200.00 92.76 194.79 92.48
  L 137.54 92.45
  Z
  M 110.83 309.29
  L 152.76 266.70
  A 0.84 0.80 42.9 0 0 152.69 265.50
  L 152.67 265.48
  A 0.68 0.67 42.4 0 0 151.75 265.52
  L 112.98 304.60
  A 0.18 0.06 -73.2 0 0 112.94 304.66
  Q 111.89 307.55 110.74 306.59
  L 112.02 303.34
  Q 114.25 302.44 115.67 300.74
  Q 117.29 298.82 117.33 298.78
  Q 134.66 281.13 151.84 262.90
  Q 160.27 253.67 169.42 244.67
  Q 170.26 243.84 171.31 243.24
  L 171.92 243.14
  A 0.39 0.38 -26.4 0 0 172.14 242.49
  Q 157.09 227.20 149.71 219.04
  C 143.90 212.63 138.47 207.32 132.10 200.52
  Q 118.22 185.73 113.12 181.08
  Q 112.68 180.68 110.93 179.36
  A 1.08 1.08 0.0 0 0 109.20 180.22
  Q 109.42 244.98 109.42 306.58
  Q 109.42 307.87 110.83 309.29
  Z"
/>
<path fill="#848079" d="
  M 194.79 92.48
  L 137.54 92.45
  L 194.79 92.48
  Z"
/>
<path fill="#d6d1cb" d="
  M 137.54 92.45
  L 194.79 92.48
  Q 200.00 92.76 205.25 92.59
  Q 207.04 92.53 215.73 94.05
  Q 228.85 96.36 240.25 105.00
  C 248.43 111.21 253.89 118.74 257.94 127.65
  C 267.80 149.33 262.19 174.25 246.42 190.89
  Q 239.76 197.92 230.29 202.52
  L 229.40 202.35
  A 0.44 0.44 0.0 0 1 229.24 201.55
  L 233.10 199.04
  Q 239.68 195.39 244.98 190.31
  C 247.63 187.77 249.51 184.82 252.10 181.30
  C 256.60 175.17 258.12 167.73 260.50 160.63
  A 4.42 4.21 57.6 0 0 260.70 159.62
  C 260.97 155.69 261.65 152.85 261.27 149.61
  Q 260.82 145.76 260.65 145.35
  C 258.59 140.17 254.58 140.87 250.05 142.00
  A 0.58 0.58 0.0 0 0 249.60 142.60
  L 250.09 151.72
  Q 250.09 151.74 250.09 151.75
  Q 250.00 151.91 249.82 152.00
  A 0.41 0.41 0.0 0 0 249.60 152.38
  Q 249.76 159.86 248.74 163.48
  Q 244.22 179.58 230.02 190.14
  Q 217.57 198.78 202.73 198.86
  Q 189.07 198.93 175.49 199.04
  Q 167.71 198.86 160.00 198.63
  Q 158.70 198.59 155.49 199.03
  Q 154.99 198.65 154.74 198.15
  A 0.87 0.87 0.0 0 1 155.50 196.88
  Q 178.84 196.50 194.63 196.81
  Q 207.48 197.05 213.30 195.53
  Q 229.98 191.15 239.59 177.34
  Q 250.06 162.31 246.53 143.36
  Q 247.30 138.58 246.59 136.50
  Q 241.77 122.48 229.81 113.66
  Q 228.52 112.71 222.27 109.32
  A 2.94 2.93 66.9 0 0 221.75 109.11
  Q 220.19 108.64 218.70 107.87
  A 0.31 0.30 52.4 0 1 218.77 107.30
  Q 219.37 107.17 220.23 107.90
  A 0.13 0.13 0.0 0 0 220.43 107.73
  Q 220.18 107.27 219.72 107.28
  Q 215.71 107.38 212.75 105.64
  A 2.42 2.31 60.9 0 0 211.75 105.33
  C 206.65 104.91 202.60 104.37 197.24 104.44
  Q 170.59 104.80 151.00 104.58
  Q 140.08 104.46 134.20 104.58
  Q 123.10 104.74 112.00 104.68
  Q 110.70 104.68 109.71 105.09
  A 0.61 0.60 78.5 0 1 108.87 104.53
  L 108.87 94.84
  A 1.48 1.37 -32.9 0 1 109.04 94.17
  Q 109.81 92.75 111.75 92.74
  Q 124.65 92.66 137.54 92.45
  Z"
/>
<path fill="#595752" d="
  M 246.53 143.36
  L 239.18 127.51
  A 0.14 0.11 -83.0 0 0 239.15 127.46
  Q 235.78 123.40 232.80 119.88
  Q 232.17 119.14 231.20 118.75
  A 1.79 1.70 80.2 0 1 230.46 118.20
  Q 227.68 114.67 223.17 112.66
  A 2.03 2.02 81.4 0 1 222.48 112.15
  Q 221.57 111.05 219.92 110.67
  Q 212.94 109.03 212.93 109.02
  A 0.22 0.22 0.0 0 1 213.01 108.62
  Q 213.52 108.55 214.11 108.63
  Q 210.87 108.29 208.03 107.89
  Q 204.89 107.45 201.95 107.38
  Q 184.15 106.96 162.76 105.62
  Q 157.69 105.30 148.48 105.17
  Q 141.34 105.06 134.20 104.58
  Q 140.08 104.46 151.00 104.58
  Q 170.59 104.80 197.24 104.44
  C 202.60 104.37 206.65 104.91 211.75 105.33
  A 2.42 2.31 60.9 0 1 212.75 105.64
  Q 215.71 107.38 219.72 107.28
  Q 220.18 107.27 220.43 107.73
  A 0.13 0.13 0.0 0 1 220.23 107.90
  Q 219.37 107.17 218.77 107.30
  A 0.31 0.30 52.4 0 0 218.70 107.87
  Q 220.19 108.64 221.75 109.11
  A 2.94 2.93 66.9 0 1 222.27 109.32
  Q 228.52 112.71 229.81 113.66
  Q 241.77 122.48 246.59 136.50
  Q 247.30 138.58 246.53 143.36
  Z"
/>
<path fill="#b7b3aa" d="
  M 233.10 199.04
  C 233.72 195.66 231.69 192.89 230.02 190.14
  Q 244.22 179.58 248.74 163.48
  Q 249.76 159.86 249.60 152.38
  A 0.41 0.41 0.0 0 1 249.82 152.00
  Q 250.00 151.91 250.09 151.75
  Q 250.09 151.74 250.09 151.72
  L 249.60 142.60
  A 0.58 0.58 0.0 0 1 250.05 142.00
  C 254.58 140.87 258.59 140.17 260.65 145.35
  Q 260.82 145.76 261.27 149.61
  C 261.65 152.85 260.97 155.69 260.70 159.62
  A 4.42 4.21 57.6 0 1 260.50 160.63
  C 258.12 167.73 256.60 175.17 252.10 181.30
  C 249.51 184.82 247.63 187.77 244.98 190.31
  Q 239.68 195.39 233.10 199.04
  Z"
/>
<path fill="#d6d1cb" d="
  M 171.31 243.24
  Q 170.49 243.11 169.91 242.65
  Q 163.58 237.71 158.36 231.63
  Q 156.88 229.90 155.22 228.24
  L 113.26 184.74
  A 0.72 0.72 0.0 0 0 112.02 185.24
  L 112.19 208.20
  L 112.10 259.54
  L 112.02 303.34
  L 110.74 306.59
  Q 109.95 307.07 110.83 309.29
  Q 109.42 307.87 109.42 306.58
  Q 109.42 244.98 109.20 180.22
  A 1.08 1.08 0.0 0 1 110.93 179.36
  Q 112.68 180.68 113.12 181.08
  Q 118.22 185.73 132.10 200.52
  C 138.47 207.32 143.90 212.63 149.71 219.04
  Q 157.09 227.20 172.14 242.49
  A 0.39 0.38 -26.4 0 1 171.92 243.14
  L 171.31 243.24
  Z"
/>
<path fill="#b7b3aa" d="
  M 155.22 228.24
  C 139.61 224.37 124.19 219.46 112.19 208.20
  L 112.02 185.24
  A 0.72 0.72 0.0 0 1 113.26 184.74
  L 155.22 228.24
  Z"
/>
<path fill="#97948c" d="
  M 230.02 190.14
  C 231.69 192.89 233.72 195.66 233.10 199.04
  L 229.24 201.55
  A 0.44 0.44 0.0 0 0 229.40 202.35
  L 230.29 202.52
  Q 222.00 206.96 212.75 208.36
  L 186.47 209.29
  Q 185.19 209.24 185.18 209.91
  Q 184.51 209.10 184.21 209.66
  Q 183.81 210.39 184.32 211.05
  C 189.83 218.12 196.30 224.42 202.26 231.13
  L 190.30 227.65
  A 1.61 1.61 0.0 0 0 188.25 229.42
  Q 188.34 230.05 188.64 231.05
  A 2.05 2.01 -75.8 0 0 189.10 231.84
  L 212.82 257.56
  Q 213.52 258.20 214.04 258.72
  Q 216.40 261.12 222.22 267.70
  C 233.66 280.62 246.16 294.00 253.48 302.01
  Q 254.90 303.57 252.87 304.90
  Q 250.10 301.53 247.10 298.49
  C 242.09 293.42 237.82 288.80 234.73 284.99
  Q 232.71 282.51 229.26 279.38
  Q 226.97 277.29 223.80 273.66
  Q 220.80 270.21 217.65 267.38
  C 214.83 264.84 212.60 261.69 209.60 258.45
  Q 199.00 246.99 198.45 246.39
  C 189.20 236.25 178.09 225.19 169.54 215.32
  A 3.74 3.54 24.2 0 1 169.23 214.90
  Q 167.91 212.60 164.70 209.80
  Q 161.87 207.34 155.18 199.39
  Q 160.27 198.93 163.42 201.34
  A 0.47 0.45 50.2 0 0 163.88 201.39
  Q 169.13 198.89 175.49 199.04
  Q 189.07 198.93 202.73 198.86
  Q 217.57 198.78 230.02 190.14
  Z"
/>
<path fill="#b7b3aa" d="
  M 175.49 199.04
  Q 169.13 198.89 163.88 201.39
  A 0.47 0.45 50.2 0 1 163.42 201.34
  Q 160.27 198.93 155.18 199.39
  Q 155.34 199.21 155.49 199.03
  Q 158.70 198.59 160.00 198.63
  Q 167.71 198.86 175.49 199.04
  Z"
/>
<path fill="#848079" d="
  M 155.22 228.24
  Q 156.88 229.90 158.36 231.63
  Q 163.58 237.71 169.91 242.65
  Q 170.49 243.11 171.31 243.24
  Q 170.26 243.84 169.42 244.67
  Q 160.27 253.67 151.84 262.90
  Q 131.82 260.10 112.73 254.39
  A 0.38 0.38 0.0 0 0 112.24 254.74
  L 112.10 259.54
  L 112.19 208.20
  C 124.19 219.46 139.61 224.37 155.22 228.24
  Z"
/>
<path fill="#595752" d="
  M 212.75 208.36
  Q 210.09 211.63 206.63 211.60
  Q 198.36 211.53 190.11 211.62
  A 2.00 1.98 57.5 0 1 189.18 211.41
  Q 187.70 210.67 186.47 209.29
  L 212.75 208.36
  Z"
/>
<path fill="#d6d1cb" d="
  M 185.18 209.91
  L 272.13 303.93
  A 0.27 0.27 0.0 0 1 271.94 304.38
  Q 271.32 304.41 270.81 304.12
  Q 269.02 303.36 267.75 302.01
  Q 249.06 282.17 230.69 262.05
  Q 228.62 259.79 226.63 257.70
  L 202.26 231.13
  C 196.30 224.42 189.83 218.12 184.32 211.05
  Q 183.81 210.39 184.21 209.66
  Q 184.51 209.10 185.18 209.91
  Z"
/>
<path fill="#848079" d="
  M 202.26 231.13
  L 226.63 257.70
  L 212.82 257.56
  L 189.10 231.84
  A 2.05 2.01 -75.8 0 1 188.64 231.05
  Q 188.34 230.05 188.25 229.42
  A 1.61 1.61 0.0 0 1 190.30 227.65
  L 202.26 231.13
  Z"
/>
<path fill="#595752" d="
  M 151.84 262.90
  Q 134.66 281.13 117.33 298.78
  Q 117.29 298.82 115.67 300.74
  Q 114.25 302.44 112.02 303.34
  L 112.10 259.54
  L 112.24 254.74
  A 0.38 0.38 0.0 0 1 112.73 254.39
  Q 131.82 260.10 151.84 262.90
  Z"
/>
<path fill="#595752" d="
  M 226.63 257.70
  Q 228.62 259.79 230.69 262.05
  Q 249.06 282.17 267.75 302.01
  Q 269.02 303.36 270.81 304.12
  Q 264.14 305.21 257.40 304.84
  A 0.22 0.22 0.0 0 0 257.16 305.05
  L 257.16 305.06
  A 0.22 0.22 0.0 0 0 257.38 305.29
  L 262.61 305.37
  Q 262.62 305.37 262.61 305.37
  Q 257.71 305.64 252.87 304.90
  Q 254.90 303.57 253.48 302.01
  C 246.16 294.00 233.66 280.62 222.22 267.70
  Q 216.40 261.12 214.04 258.72
  Q 213.52 258.20 212.82 257.56
  L 226.63 257.70
  Z"
/>
<path fill="#595752" d="
  M 110.83 309.29
  Q 109.95 307.07 110.74 306.59
  Q 111.89 307.55 112.94 304.66
  A 0.18 0.06 -73.2 0 1 112.98 304.60
  L 151.75 265.52
  A 0.68 0.67 42.4 0 1 152.67 265.48
  L 152.69 265.50
  A 0.84 0.80 42.9 0 1 152.76 266.70
  L 110.83 309.29
  Z"
/>
</svg>
